<svg xmlns="http://www.w3.org/2000/svg" fill="none" stroke-linecap="square" stroke-miterlimit="10" viewBox="0 0 960 720"><defs><path d="M0 0h960v720H0z" id="reuse-0"/></defs><clipPath id="a"><use href="#reuse-0"/></clipPath><g clip-path="url(#a)"><use href="#reuse-0"/><path d="M41.78 151.742c0-60.804 49.291-110.096 110.096-110.096H787.18a110.097 110.097 0 0 1 110.097 110.096v440.374c0 60.805-49.292 110.097-110.097 110.097H151.876c-60.805 0-110.096-49.292-110.096-110.097z"/><path stroke="#46f" stroke-dasharray="8 6" stroke-linecap="butt" stroke-linejoin="round" stroke-width="2" d="M41.78 151.742c0-60.804 49.291-110.096 110.096-110.096H787.18a110.097 110.097 0 0 1 110.097 110.096v440.374c0 60.805-49.292 110.097-110.097 110.097H151.876c-60.805 0-110.096-49.292-110.096-110.097z"/><path d="M526.664 148.602c0-28.102 22.781-50.883 50.883-50.883h203.525a50.883 50.883 0 0 1 50.883 50.883v461.982c0 28.102-22.78 50.883-50.883 50.883H577.547c-28.102 0-50.883-22.78-50.883-50.883z"/><path stroke="#464646" stroke-linecap="butt" stroke-linejoin="round" stroke-width="2" d="M526.664 148.602c0-28.102 22.781-50.883 50.883-50.883h203.525a50.883 50.883 0 0 1 50.883 50.883v461.982c0 28.102-22.78 50.883-50.883 50.883H577.547c-28.102 0-50.883-22.78-50.883-50.883z"/><path d="M108.344 148.602c0-28.102 22.78-50.883 50.883-50.883h203.525a50.883 50.883 0 0 1 50.883 50.883v461.982c0 28.102-22.78 50.883-50.883 50.883H159.227c-28.102 0-50.883-22.78-50.883-50.883z"/><path stroke="#464646" stroke-linecap="butt" stroke-linejoin="round" stroke-width="2" d="M108.344 148.602c0-28.102 22.78-50.883 50.883-50.883h203.525a50.883 50.883 0 0 1 50.883 50.883v461.982c0 28.102-22.78 50.883-50.883 50.883H159.227c-28.102 0-50.883-22.78-50.883-50.883z"/><path d="M160.25 189.452c0-18.737 15.19-33.927 33.927-33.927H329.88a33.927 33.927 0 0 1 33.927 33.927v407.17c0 18.737-15.19 33.927-33.927 33.927H194.177c-18.738 0-33.928-15.19-33.928-33.928z"/><path stroke="#ff6400" stroke-linecap="butt" stroke-linejoin="round" stroke-width="2" d="M160.25 189.452c0-18.737 15.19-33.927 33.927-33.927H329.88a33.927 33.927 0 0 1 33.927 33.927v407.17c0 18.737-15.19 33.927-33.927 33.927H194.177c-18.738 0-33.928-15.19-33.928-33.928z"/><path d="M35.367 6.133H184.25V62.51H35.367zM151.695 120.19H335.16v56.378H151.695z"/><path fill="#e6e6e6" fill-rule="evenodd" d="m194.356 527.514-.657.06-1.197.406-.858.81-.532 1.04-.063.574v63.617l.063.58.532 1.04.858.81 1.197.405.657.054h142.257l.664-.054 1.19-.405.927-.81.464-1.04.068-.58v-63.617l-.068-.575-.464-1.04-.927-.81-1.19-.404-.664-.06z"/><path fill="#fff" fill-rule="evenodd" d="M202.78 536.186h126.047v52.063H202.78z"/><path fill="#000" d="M256.664 568.328q-.875 0-1.688-.36-.797-.359-1.422-1.046-.625-.704-.89-1.688l1.297-.531q.265 1.015 1 1.672.734.656 1.734.656.984 0 1.672-.531.687-.532.687-1.47 0-.796-.578-1.312-.578-.515-1.906-.968l-.734-.25q-1.204-.438-1.985-1.14-.765-.704-.765-1.954 0-.813.453-1.5.453-.703 1.25-1.125t1.797-.422q.984 0 1.718.375.735.375 1.172.906.453.516.625 1.032l-1.265.546q-.172-.593-.75-1.078-.563-.484-1.485-.484-.89 0-1.515.5t-.625 1.25q0 .672.53 1.094.532.422 1.61.797l.75.25q1.453.53 2.266 1.328.812.78.812 2.14 0 1.11-.562 1.86t-1.438 1.11q-.86.343-1.765.343m9.148 0q-1.172 0-2.11-.547-.921-.563-1.437-1.547t-.516-2.219q0-1.172.485-2.172.484-1 1.39-1.593.907-.594 2.079-.594 1.203 0 2.078.547.875.531 1.343 1.484.485.938.485 2.156 0 .188-.031.407h-6.47q.048.937.438 1.578.407.64 1.016.969.625.312 1.297.312 1.594 0 2.422-1.484l1.14.562q-.5.985-1.422 1.563-.906.578-2.187.578m2.344-5.188q-.032-.515-.282-1.03-.25-.517-.796-.86-.547-.36-1.375-.36-.97 0-1.641.625-.672.61-.875 1.625zm3.039-3.218h1.281v1.312h.078q.235-.672.922-1.11.688-.452 1.438-.452.562 0 .968.171v1.47q-.515-.266-1.156-.266-.594 0-1.094.343-.5.328-.796.907-.282.562-.282 1.218v4.563h-1.359zm5.366 0h1.453l2.531 6.562h.031l2.563-6.562h1.422l-3.328 8.156h-1.375zm9.927-1.5q-.406 0-.703-.282-.281-.297-.281-.703 0-.422.28-.687.298-.282.704-.282t.687.282q.282.265.282.687 0 .406-.282.703-.28.282-.687.282m-.672 1.5h1.36v8.156h-1.36zm7.099 8.406q-1.188 0-2.141-.563-.938-.562-1.469-1.547-.515-.984-.515-2.218 0-1.235.515-2.22.531-1 1.469-1.562.953-.562 2.14-.562 1.329 0 2.235.625.906.61 1.281 1.64l-1.234.516q-.297-.765-.906-1.156-.594-.39-1.438-.39-.719 0-1.344.39t-1 1.11q-.375.702-.375 1.609 0 .906.375 1.61.375.702 1 1.108.625.391 1.344.391.86 0 1.484-.406.625-.406.938-1.14l1.203.515q-.406 1.015-1.328 1.64-.922.61-2.234.61m8.593 0q-1.172 0-2.11-.547-.921-.563-1.437-1.547-.515-.984-.515-2.219 0-1.172.484-2.172t1.39-1.593 2.079-.594q1.203 0 2.078.547.875.531 1.344 1.484.484.938.484 2.156 0 .188-.031.407h-6.47q.048.937.438 1.578.407.64 1.016.969.625.312 1.297.312 1.594 0 2.422-1.484l1.14.562q-.5.985-1.421 1.563-.907.578-2.188.578m2.344-5.188q-.031-.515-.281-1.03-.25-.517-.797-.86-.547-.36-1.375-.36-.97 0-1.64.625-.673.61-.876 1.625zm9.849-6.515h1.531l4.36 11.453h-1.5l-1.14-3.156h-4.97l-1.14 3.156h-1.5zm2.781 7.015-1.53-4.125-.454-1.234h-.062l-.454 1.234-1.53 4.125z"/><path fill="#767576" fill-rule="evenodd" d="m222.647 544.867-1.906.054-3.625.695-3.253 1.33-2.945 1.85-2.515 2.37-1.964 2.78-1.411 3.064-.738 3.41-.064 1.794.064 1.795.738 3.35 1.411 3.124 1.964 2.775 2.515 2.375 2.945 1.85 3.253 1.33 3.625.694 1.906.055 1.9-.055 3.56-.695 3.317-1.33 2.946-1.85 2.515-2.374 1.964-2.775 1.411-3.125.738-3.349.064-1.795-.064-1.795-.738-3.409-1.411-3.065-1.964-2.78-2.515-2.37-2.946-1.849-3.317-1.33-3.56-.695z"/><path d="M229.153 568.228h-13.076V555.91h13.076z"/><path stroke="#fff" stroke-linecap="butt" stroke-linejoin="round" stroke-width=".916" d="M229.153 568.228h-13.076V555.91h13.076z"/><path d="M218.528 555.91v-2.95"/><path stroke="#fff" stroke-linecap="round" stroke-miterlimit="105.678" stroke-width=".916" d="M218.528 555.91v-2.95"/><path d="M222.647 555.91v-2.95"/><path stroke="#fff" stroke-linecap="round" stroke-miterlimit="105.678" stroke-width=".916" d="M222.647 555.91v-2.95"/><path d="M226.76 555.91v-2.95"/><path stroke="#fff" stroke-linecap="round" stroke-miterlimit="105.678" stroke-width=".916" d="M226.76 555.91v-2.95"/><path d="M218.528 571.468v-3.01"/><path stroke="#fff" stroke-linecap="round" stroke-miterlimit="105.678" stroke-width=".916" d="M218.528 571.468v-3.01"/><path d="M222.647 571.468v-3.01"/><path stroke="#fff" stroke-linecap="round" stroke-miterlimit="105.678" stroke-width=".916" d="M222.647 571.468v-3.01"/><path d="M226.76 571.468v-3.01"/><path stroke="#fff" stroke-linecap="round" stroke-miterlimit="105.678" stroke-width=".916" d="M226.76 571.468v-3.01"/><path d="M215.955 566.089h-3.132"/><path stroke="#fff" stroke-linecap="round" stroke-miterlimit="105.678" stroke-width=".916" d="M215.955 566.089h-3.132"/><path d="M215.955 562.214h-3.132"/><path stroke="#fff" stroke-linecap="round" stroke-miterlimit="105.678" stroke-width=".916" d="M215.955 562.214h-3.132"/><path d="M215.955 558.34h-3.132"/><path stroke="#fff" stroke-linecap="round" stroke-miterlimit="105.678" stroke-width=".916" d="M215.955 558.34h-3.132"/><path d="M232.464 566.089h-3.189"/><path stroke="#fff" stroke-linecap="round" stroke-miterlimit="105.678" stroke-width=".916" d="M232.464 566.089h-3.189"/><path d="M232.464 562.214h-3.189"/><path stroke="#fff" stroke-linecap="round" stroke-miterlimit="105.678" stroke-width=".916" d="M232.464 562.214h-3.189"/><path d="M232.464 558.34h-3.189"/><path stroke="#fff" stroke-linecap="round" stroke-miterlimit="105.678" stroke-width=".916" d="M232.464 558.34h-3.189"/><path fill="#fff" fill-rule="evenodd" d="m221.787 559.325-.43.054-.738.29-.552.52-.307.695v2.43l.307.695.552.52.738.284h2.574l.737-.284.552-.52.308-.695v-2.43l-.308-.695-.552-.52-.737-.29-.43-.054z"/><path d="M568.91 191.993c0-20.14 16.328-36.468 36.469-36.468h145.867a36.47 36.47 0 0 1 36.468 36.468V594.08c0 20.14-16.327 36.468-36.468 36.468H605.379c-20.141 0-36.468-16.328-36.468-36.468z"/><path stroke="#ff6400" stroke-linecap="butt" stroke-linejoin="round" stroke-width="2" d="M568.91 191.993c0-20.14 16.328-36.468 36.469-36.468h145.867a36.47 36.47 0 0 1 36.468 36.468V594.08c0 20.14-16.327 36.468-36.468 36.468H605.379c-20.141 0-36.468-16.328-36.468-36.468z"/><path d="M559.153 120.19h183.464v56.378H559.153z"/><path fill="#e6e6e6" fill-rule="evenodd" d="M528.822 186.821H660.61v70.067H528.82z"/><path fill="#fff" fill-rule="evenodd" d="M535.532 194.607h116.14v53.386h-116.14z"/><path fill="#000" d="M561.02 215.707h1.53l4.36 11.453h-1.5l-1.14-3.156h-4.97l-1.14 3.156h-1.5zm2.78 7.015-1.53-4.125-.454-1.234h-.062l-.454 1.234-1.53 4.125zm4.627-7.015h3.86q.952 0 1.765.437.828.422 1.312 1.203.485.766.485 1.75 0 .97-.485 1.75-.484.782-1.312 1.22-.813.421-1.766.421h-2.5v4.672h-1.36zm3.89 5.484q.641 0 1.125-.297.485-.312.75-.78.282-.485.282-1.017 0-.53-.282-1-.265-.484-.75-.78-.484-.313-1.125-.313h-2.53v4.187zm5.326-5.484h1.36v11.453h-1.36zm10.355 11.703q-.875 0-1.688-.36-.796-.359-1.421-1.046-.625-.703-.891-1.688l1.297-.531q.265 1.016 1 1.672.734.656 1.734.656.985 0 1.672-.531.688-.531.688-1.469 0-.797-.579-1.312-.578-.516-1.906-.97l-.734-.25q-1.203-.437-1.985-1.14-.765-.703-.765-1.953 0-.812.453-1.5.453-.703 1.25-1.125t1.797-.422q.984 0 1.719.375.734.375 1.171.906.454.516.625 1.032l-1.265.547q-.172-.594-.75-1.079-.563-.484-1.485-.484-.89 0-1.515.5t-.625 1.25q0 .672.531 1.094t1.61.797l.75.25q1.453.531 2.265 1.328.813.781.813 2.14 0 1.11-.563 1.86t-1.437 1.11q-.86.343-1.766.343m9.148 0q-1.172 0-2.11-.547-.921-.562-1.437-1.547-.515-.984-.515-2.219 0-1.171.484-2.171t1.39-1.594q.907-.594 2.079-.594 1.203 0 2.078.547.875.531 1.344 1.484.484.938.484 2.157 0 .187-.031.406h-6.469q.047.937.438 1.578.406.64 1.015.969.625.312 1.297.312 1.594 0 2.422-1.484l1.14.562q-.5.985-1.421 1.563-.907.578-2.188.578m2.344-5.188q-.031-.515-.281-1.03-.25-.516-.797-.86-.547-.36-1.375-.36-.969 0-1.64.625-.673.61-.876 1.625zm3.04-3.218h1.28v1.312h.079q.234-.672.921-1.11.688-.452 1.438-.452.562 0 .969.172v1.468q-.516-.265-1.157-.265-.593 0-1.093.343-.5.329-.797.907-.281.562-.281 1.218v4.563h-1.36zm5.365 0h1.453l2.531 6.562h.032l2.562-6.562h1.422l-3.328 8.156h-1.375zm12.515 8.406q-1.172 0-2.11-.547-.921-.562-1.437-1.547-.515-.984-.515-2.219 0-1.171.484-2.171t1.39-1.594q.907-.594 2.079-.594 1.203 0 2.078.547.875.531 1.344 1.484.484.938.484 2.157 0 .187-.031.406h-6.469q.047.937.438 1.578.406.64 1.015.969.625.312 1.297.312 1.594 0 2.422-1.484l1.14.562q-.5.985-1.421 1.563-.907.578-2.188.578m2.344-5.188q-.031-.515-.281-1.03-.25-.516-.797-.86-.547-.36-1.375-.36-.969 0-1.64.625-.673.61-.876 1.625zm3.04-3.218h1.28v1.312h.079q.234-.672.921-1.11.688-.452 1.438-.452.562 0 .969.172v1.468q-.516-.265-1.157-.265-.593 0-1.093.343-.5.329-.797.907-.281.562-.281 1.218v4.563h-1.36z"/><path d="m265.804 536.186.882-153.732"/><path stroke="#46f" stroke-dasharray="8 6" stroke-linecap="butt" stroke-linejoin="round" stroke-width="2" d="m265.804 536.186.842-146.878"/><path fill="#46f" fill-rule="evenodd" stroke="#46f" stroke-linecap="butt" stroke-width="2" d="m266.646 389.308 2.237 2.262-2.214-6.192-2.285 6.166z"/><path d="M278.618 310.686 535.532 221.3"/><path stroke="#46f" stroke-dasharray="8 6" stroke-linecap="butt" stroke-linejoin="round" stroke-width="2" d="m278.618 310.686 250.44-87.134"/><path fill="#46f" fill-rule="evenodd" stroke="#46f" stroke-linecap="butt" stroke-width="2" d="m529.058 223.552-1.385 2.864 5.097-4.155-6.575-.094z"/><path d="M428.152 251.378h90.992v33.984h-90.992zm-249.616-33.475h90.992v56.378h-90.992zM98.28 66.56h197.576v42.55H98.28z"/><path fill="#e6e6e6" fill-rule="evenodd" d="m602.356 420.15-.657.06-1.197.405-.858.81-.532 1.04-.063.574v63.618l.063.58.532 1.04.858.81 1.197.404.657.055h142.257l.664-.055 1.19-.405.927-.81.464-1.04.069-.58V423.04l-.07-.574-.463-1.04-.927-.81-1.19-.405-.664-.06z"/><path fill="#fff" fill-rule="evenodd" d="M610.78 428.822h126.047v52.063H610.78z"/><path fill="#000" d="M665.208 460.963q-.875 0-1.688-.359-.797-.36-1.422-1.047-.625-.703-.89-1.687l1.297-.532q.265 1.016 1 1.672.734.656 1.734.656.984 0 1.672-.53.687-.532.687-1.47 0-.796-.578-1.312t-1.906-.969l-.734-.25q-1.204-.437-1.985-1.14-.765-.704-.765-1.954 0-.812.453-1.5.453-.703 1.25-1.125.797-.421 1.797-.421.984 0 1.718.375.735.375 1.172.906.453.515.625 1.031l-1.265.547q-.172-.594-.75-1.078-.563-.485-1.485-.485-.89 0-1.515.5t-.625 1.25q0 .672.53 1.094.532.422 1.61.797l.75.25q1.453.531 2.266 1.328.812.781.812 2.14 0 1.11-.562 1.86t-1.438 1.11q-.859.343-1.765.343m9.148 0q-1.172 0-2.11-.547-.921-.562-1.437-1.546-.516-.985-.516-2.22 0-1.171.485-2.171.484-1 1.39-1.594.907-.594 2.079-.594 1.203 0 2.078.547.875.532 1.343 1.485.485.937.485 2.156 0 .187-.031.406h-6.47q.048.938.438 1.578.407.641 1.016.97.625.312 1.297.312 1.594 0 2.422-1.485l1.14.563q-.5.984-1.422 1.562-.906.578-2.187.578m2.344-5.187q-.032-.516-.282-1.031-.25-.516-.796-.86-.547-.36-1.375-.36-.97 0-1.641.626-.672.61-.875 1.625zm3.039-3.219h1.281v1.313h.078q.235-.672.922-1.11.688-.453 1.438-.453.562 0 .969.172v1.469q-.516-.266-1.157-.266-.593 0-1.093.344-.5.328-.797.906-.282.563-.282 1.219v4.562h-1.359zm5.366 0h1.453l2.531 6.563h.031l2.563-6.563h1.422l-3.328 8.156h-1.375zm9.927-1.5q-.406 0-.703-.281-.281-.297-.281-.703 0-.422.28-.688.298-.281.704-.281t.687.281q.282.266.282.688 0 .406-.282.703-.28.281-.687.281m-.672 1.5h1.36v8.156h-1.36zm7.099 8.406q-1.188 0-2.141-.562-.938-.563-1.469-1.547-.515-.984-.515-2.219t.515-2.219q.531-1 1.469-1.562.953-.563 2.14-.563 1.329 0 2.235.625.906.61 1.281 1.641l-1.234.516q-.297-.766-.906-1.157-.594-.39-1.438-.39-.719 0-1.344.39-.625.391-1 1.11-.375.703-.375 1.61 0 .905.375 1.609.375.703 1 1.109.625.39 1.344.39.86 0 1.484-.406.625-.406.938-1.14l1.203.515q-.406 1.016-1.328 1.641-.922.61-2.234.61m8.593 0q-1.172 0-2.11-.547-.921-.562-1.437-1.546-.515-.985-.515-2.22 0-1.171.484-2.171t1.39-1.594q.907-.594 2.079-.594 1.203 0 2.078.547.875.532 1.344 1.485.484.937.484 2.156 0 .187-.031.406h-6.47q.048.938.438 1.578.407.641 1.016.97.625.312 1.297.312 1.594 0 2.422-1.485l1.14.563q-.5.984-1.421 1.562-.907.578-2.188.578m2.344-5.187q-.031-.516-.281-1.031-.25-.516-.797-.86-.547-.36-1.375-.36-.97 0-1.64.626-.673.61-.876 1.625zm7.017-6.516h4.11q.858 0 1.624.406.766.391 1.203 1.094.453.703.453 1.578 0 .844-.422 1.47-.421.624-1.14.952v.063q.86.297 1.406 1 .547.703.547 1.64 0 .938-.484 1.688-.47.734-1.266 1.156-.781.406-1.703.406h-4.328zm4.11 4.938q.577 0 1.015-.266t.672-.687q.25-.422.25-.875 0-.422-.235-.844t-.656-.688q-.422-.28-.984-.28h-2.813v3.64zm.312 5.218q.562 0 1.015-.28.469-.298.719-.75.25-.454.25-.938 0-.485-.266-.938-.25-.453-.718-.734-.47-.281-1.079-.281h-2.984v3.921z"/><path fill="#767576" fill-rule="evenodd" d="m630.647 437.502-1.906.055-3.625.695-3.253 1.33-2.945 1.85-2.515 2.369-1.964 2.78-1.411 3.065-.738 3.409-.064 1.795.064 1.795.738 3.349 1.411 3.125 1.964 2.774 2.515 2.375 2.945 1.85 3.253 1.33 3.625.695 1.906.054 1.9-.054 3.56-.695 3.318-1.33 2.945-1.85 2.515-2.375 1.964-2.774 1.411-3.125.738-3.35.064-1.794-.064-1.795-.738-3.41-1.411-3.064-1.964-2.78-2.515-2.37-2.945-1.85-3.318-1.33-3.56-.694z"/><path d="M637.153 460.864h-13.076v-12.319h13.076z"/><path stroke="#fff" stroke-linecap="butt" stroke-linejoin="round" stroke-width=".916" d="M637.153 460.864h-13.076v-12.319h13.076z"/><path d="M626.528 448.545v-2.95"/><path stroke="#fff" stroke-linecap="round" stroke-miterlimit="105.678" stroke-width=".916" d="M626.528 448.545v-2.95"/><path d="M630.647 448.545v-2.95"/><path stroke="#fff" stroke-linecap="round" stroke-miterlimit="105.678" stroke-width=".916" d="M630.647 448.545v-2.95"/><path d="M634.76 448.545v-2.95"/><path stroke="#fff" stroke-linecap="round" stroke-miterlimit="105.678" stroke-width=".916" d="M634.76 448.545v-2.95"/><path d="M626.528 464.103v-3.01"/><path stroke="#fff" stroke-linecap="round" stroke-miterlimit="105.678" stroke-width=".916" d="M626.528 464.103v-3.01"/><path d="M630.647 464.103v-3.01"/><path stroke="#fff" stroke-linecap="round" stroke-miterlimit="105.678" stroke-width=".916" d="M630.647 464.103v-3.01"/><path d="M634.76 464.103v-3.01"/><path stroke="#fff" stroke-linecap="round" stroke-miterlimit="105.678" stroke-width=".916" d="M634.76 464.103v-3.01"/><path d="M623.955 458.724h-3.132"/><path stroke="#fff" stroke-linecap="round" stroke-miterlimit="105.678" stroke-width=".916" d="M623.955 458.724h-3.132"/><path d="M623.955 454.85h-3.132"/><path stroke="#fff" stroke-linecap="round" stroke-miterlimit="105.678" stroke-width=".916" d="M623.955 454.85h-3.132"/><path d="M623.955 450.975h-3.132"/><path stroke="#fff" stroke-linecap="round" stroke-miterlimit="105.678" stroke-width=".916" d="M623.955 450.975h-3.132"/><path d="M640.464 458.724h-3.189"/><path stroke="#fff" stroke-linecap="round" stroke-miterlimit="105.678" stroke-width=".916" d="M640.464 458.724h-3.189"/><path d="M640.464 454.85h-3.189"/><path stroke="#fff" stroke-linecap="round" stroke-miterlimit="105.678" stroke-width=".916" d="M640.464 454.85h-3.189"/><path d="M640.464 450.975h-3.189"/><path stroke="#fff" stroke-linecap="round" stroke-miterlimit="105.678" stroke-width=".916" d="M640.464 450.975h-3.189"/><path fill="#fff" fill-rule="evenodd" d="m629.787 451.96-.43.055-.738.29-.552.52-.307.695v2.43l.307.695.552.52.738.284h2.574l.737-.285.552-.52.308-.694v-2.43l-.308-.695-.552-.52-.737-.29-.43-.055z"/><path d="M530.28 66.56h197.576v42.55H530.28z"/><path fill="#e6e6e6" fill-rule="evenodd" d="m530.457 527.143-.577.06-1.05.41-.754.818-.467 1.051-.055.587v64.293l.055.586.467 1.051.754.819 1.05.41.577.06H655.33l.577-.06 1.045-.41.759-.819.462-1.05.06-.587v-64.293l-.06-.587-.462-1.05-.759-.82-1.045-.409-.577-.06z"/><path fill="#fff" fill-rule="evenodd" d="m538.166 535.912-.648.06-1.06.41-.764.819-.474 1.05v47.93l.474 1.051.765.819 1.06.41.646.054h109.06l.592-.055 1.06-.41.764-.818.474-1.05.056-.587v-46.757l-.056-.587-.474-1.05-.765-.819-1.06-.41-.59-.06z"/><path fill="#466bb0" fill-rule="evenodd" d="m546.925 577.294 8.793 5.028 14.616-5.028zm8.793-21.798-8.794 20.106 8.793-1.698z"/><path fill="#476baf" fill-rule="evenodd" d="M557.15 542.111v31.793l13.184 1.698z"/><path d="M563.155 547.65h85.22v29.133h-85.22z"/><path fill="#000" d="M580.261 568.327q-1.61 0-2.984-.782-1.36-.78-2.156-2.156-.797-1.375-.797-3.047 0-1.656.797-3.03.797-1.376 2.156-2.157 1.375-.797 2.984-.797 1.266 0 2.375.453 1.11.453 1.828 1.266l-.953.968q-.562-.671-1.422-1.03-.843-.36-1.812-.36-1.203 0-2.266.594-1.047.578-1.687 1.64-.625 1.063-.625 2.453t.625 2.47q.64 1.062 1.687 1.64 1.063.578 2.266.578 1.156 0 1.922-.36.781-.359 1.344-.953.421-.437.671-1.062.25-.64.313-1.406h-4.234v-1.266h5.5q.078.453.078.828 0 1.063-.344 2.063-.328 1-1.063 1.75-1.578 1.703-4.203 1.703m9.721 0q-.89 0-1.593-.344-.703-.36-1.094-.969-.375-.625-.375-1.406 0-1.297.969-2.016.984-.734 2.468-.734.735 0 1.36.172.64.156.969.36v-.5q0-.907-.641-1.454-.625-.562-1.61-.562-.671 0-1.265.296-.578.297-.906.829l-1.032-.766q.485-.734 1.329-1.156.859-.422 1.875-.422 1.671 0 2.609.875t.937 2.375v5.172h-1.296v-1.172h-.063q-.344.594-1.047 1.015-.703.407-1.594.407m.141-1.188q.688 0 1.266-.344.593-.359.937-.953.36-.593.36-1.297-.375-.265-.938-.421-.562-.157-1.187-.157-1.11 0-1.688.47-.562.452-.562 1.187 0 .671.5 1.093.515.422 1.312.422m8.727 1.063q-.5 0-.922-.157-.422-.156-.703-.437-.64-.61-.64-1.672v-4.781h-1.423v-1.235h1.422v-2.312h1.36v2.312h2v1.235h-2v4.437q0 .672.25 1 .312.344.89.344.484 0 .89-.266V568q-.234.109-.484.156t-.64.047m6.004.125q-1.172 0-2.11-.547-.922-.563-1.437-1.547-.516-.984-.516-2.219 0-1.172.485-2.172.484-1 1.39-1.593.906-.594 2.078-.594 1.203 0 2.078.547.875.53 1.344 1.484.485.938.485 2.156 0 .188-.032.407h-6.468q.046.937.437 1.578.406.64 1.016.968.625.313 1.297.313 1.593 0 2.421-1.484l1.141.562q-.5.984-1.422 1.563-.906.578-2.187.578m2.343-5.188q-.03-.515-.28-1.031t-.798-.86q-.547-.359-1.375-.359-.968 0-1.64.625-.672.61-.875 1.625zm1.973-3.219h1.407l1.937 6.438h.016l2.062-6.438h1.391l2.062 6.422h.032l1.922-6.422h1.375l-2.625 8.157h-1.391l-2.11-6.516-2.093 6.516h-1.36zm15.772 8.407q-.89 0-1.593-.344-.703-.36-1.094-.969-.375-.625-.375-1.406 0-1.297.969-2.016.984-.734 2.468-.734.735 0 1.36.172.64.156.969.36v-.5q0-.907-.641-1.454-.625-.562-1.61-.562-.671 0-1.265.296-.578.297-.906.829l-1.032-.766q.485-.734 1.329-1.156.859-.422 1.875-.422 1.671 0 2.609.875t.937 2.375v5.172h-1.296v-1.172h-.063q-.344.594-1.047 1.015-.703.407-1.594.407m.141-1.188q.688 0 1.266-.344.593-.359.937-.953.36-.593.36-1.297-.375-.265-.938-.421-.562-.157-1.187-.157-1.11 0-1.688.47-.562.452-.562 1.187 0 .671.5 1.093.515.422 1.312.422m8.086.422-3.375-7.64h1.469l2.562 6.062h.032l2.468-6.063h1.47l-5.032 11.61h-1.406z"/><path fill="#e6e6e6" fill-rule="evenodd" d="M280.486 186.821h131.789v70.067h-131.79z"/><path fill="#fff" fill-rule="evenodd" d="M287.195 194.607h116.14v53.386h-116.14z"/><path fill="#000" d="M312.683 215.707h1.531l4.36 11.453h-1.5l-1.14-3.156h-4.97l-1.14 3.156h-1.5zm2.781 7.015-1.53-4.125-.454-1.234h-.062l-.454 1.234-1.53 4.125zm4.627-7.015h3.86q.952 0 1.765.437.828.422 1.312 1.203.485.766.485 1.75 0 .97-.485 1.75-.484.782-1.312 1.22-.813.421-1.766.421h-2.5v4.672h-1.36zm3.89 5.484q.641 0 1.125-.297.485-.312.75-.78.282-.485.282-1.017 0-.53-.282-1-.265-.484-.75-.78-.484-.313-1.125-.313h-2.53v4.187zm5.326-5.484h1.36v11.453h-1.36zm10.355 11.703q-.875 0-1.688-.36-.797-.359-1.422-1.046-.625-.703-.89-1.688l1.297-.531q.265 1.016 1 1.672.734.656 1.734.656.984 0 1.672-.531t.687-1.469q0-.797-.578-1.312-.578-.516-1.906-.97l-.734-.25q-1.203-.437-1.985-1.14-.765-.703-.765-1.953 0-.812.453-1.5.453-.703 1.25-1.125t1.797-.422q.984 0 1.718.375.735.375 1.172.906.453.516.625 1.032l-1.265.547q-.172-.594-.75-1.079-.563-.484-1.485-.484-.89 0-1.515.5t-.625 1.25q0 .672.531 1.094t1.61.797l.75.25q1.452.531 2.265 1.328.812.781.812 2.14 0 1.11-.562 1.86t-1.438 1.11q-.859.343-1.765.343m9.148 0q-1.172 0-2.11-.547-.921-.562-1.437-1.547-.515-.984-.515-2.219 0-1.171.484-2.171t1.39-1.594 2.079-.594q1.203 0 2.078.547.875.531 1.344 1.484.484.938.484 2.157 0 .187-.031.406h-6.469q.047.937.437 1.578.407.64 1.016.969.625.312 1.297.312 1.594 0 2.422-1.484l1.14.562q-.5.985-1.421 1.563-.907.578-2.188.578m2.344-5.188q-.031-.515-.281-1.03-.25-.516-.797-.86-.547-.36-1.375-.36-.969 0-1.64.625-.673.61-.876 1.625zm3.04-3.218h1.28v1.312h.079q.234-.672.921-1.11.688-.452 1.438-.452.562 0 .969.172v1.468q-.516-.265-1.157-.265-.593 0-1.093.343-.5.329-.797.907-.281.562-.281 1.218v4.563h-1.36zm5.365 0h1.453l2.531 6.562h.032l2.562-6.562h1.422l-3.328 8.156h-1.375zm12.515 8.406q-1.172 0-2.11-.547-.921-.562-1.437-1.547-.515-.984-.515-2.219 0-1.171.484-2.171t1.39-1.594 2.079-.594q1.203 0 2.078.547.875.531 1.344 1.484.484.938.484 2.157 0 .187-.031.406h-6.469q.047.937.438 1.578.406.64 1.015.969.625.312 1.297.312 1.594 0 2.422-1.484l1.14.562q-.5.985-1.421 1.563-.907.578-2.188.578m2.344-5.188q-.031-.515-.281-1.03-.25-.516-.797-.86-.547-.36-1.375-.36-.969 0-1.64.625-.673.61-.876 1.625zm3.04-3.218h1.28v1.312h.079q.234-.672.921-1.11.688-.452 1.438-.452.562 0 .969.172v1.468q-.516-.265-1.157-.265-.593 0-1.093.343-.5.329-.797.907-.281.562-.281 1.218v4.563h-1.36z"/><path fill="#e6e6e6" fill-rule="evenodd" d="m210.05 312.3-.578.06-1.049.401-.753.802-.467 1.03-.055.575v63l.055.575.467 1.03.753.802 1.05.4.576.06h124.78l.578-.06 1.044-.4.758-.802.461-1.03.06-.575v-63l-.06-.575-.461-1.03-.758-.802-1.044-.401-.577-.06z"/><path fill="#fff" fill-rule="evenodd" d="m218.758 320.891-.638.06-1.044.4-.752.803-.467 1.03v46.968l.467 1.03.752.802 1.044.401.638.054h107.418l.583-.054 1.044-.4.752-.803.467-1.03.055-.574v-45.82l-.055-.574-.467-1.03-.752-.802-1.044-.401-.583-.06z"/><path fill="#466bb0" fill-rule="evenodd" d="m229.153 361.443 9.989 4.926 16.603-4.926zm9.989-21.36-9.99 19.701 9.99-1.664z"/><path fill="#476baf" fill-rule="evenodd" d="M240.768 326.967v31.153l14.977 1.664z"/><path d="M247.591 332.392h81.484v28.547H247.59z"/><path fill="#000" d="M269.59 341.072h1.36v11.454h-1.36zm6.498 11.704q-1.312 0-2.203-.61-.875-.61-1.234-1.578l1.203-.547q.312.735.906 1.14.61.407 1.328.407.766 0 1.313-.312.547-.313.547-.891 0-.516-.438-.828-.437-.313-1.36-.531l-1-.266q-.968-.234-1.593-.813-.625-.578-.625-1.484 0-.703.422-1.234.422-.547 1.125-.828.703-.297 1.531-.297 1.063 0 1.906.468.844.47 1.188 1.297l-1.172.547q-.547-1.094-1.938-1.094-.671 0-1.187.313-.5.312-.5.797 0 .453.344.734.359.266 1.062.453l1.188.297q1.203.313 1.812.906.61.594.61 1.47 0 .75-.438 1.312-.437.562-1.172.875-.734.297-1.625.297m7.77-.125q-.5 0-.922-.157-.422-.156-.704-.437-.64-.61-.64-1.672v-4.781h-1.422v-1.235h1.422v-2.312h1.36v2.312h2v1.235h-2v4.437q0 .672.25 1 .312.344.89.344.484 0 .89-.266v1.328q-.234.11-.484.157t-.64.047m3.607-9.782q-.406 0-.703-.28-.281-.298-.281-.704 0-.422.281-.688.297-.28.703-.28.407 0 .688.28.281.266.281.688 0 .406-.281.703-.281.281-.688.281m-.672 1.5h1.36v8.157h-1.36zm7.161 8.407q-1.203 0-2.171-.563-.954-.578-1.485-1.562-.531-1-.531-2.204 0-1.203.531-2.187.531-1 1.485-1.578.968-.578 2.171-.578 1.204 0 2.157.578.968.578 1.5 1.578.53.984.53 2.187 0 1.204-.53 2.204-.532.984-1.5 1.562-.953.563-2.157.563m0-1.22q.75 0 1.391-.374.656-.39 1.047-1.094.39-.703.39-1.64 0-.954-.39-1.657t-1.047-1.078q-.64-.375-1.39-.375t-1.407.375-1.047 1.078-.39 1.656q0 .938.39 1.641t1.047 1.094q.656.375 1.406.375m9.255 1.22q-1.11 0-2-.547-.89-.563-1.406-1.547-.5-.985-.5-2.235 0-1.234.5-2.218.516-1 1.406-1.563t2-.562q.922 0 1.656.437.735.422 1.125 1.047h.063l-.063-1.14v-3.376h1.36v11.454h-1.297v-1.204h-.063q-.39.61-1.125 1.032-.734.422-1.656.422m.14-1.22q.72 0 1.329-.39.625-.39 1-1.094.375-.703.375-1.625 0-.937-.375-1.64t-1-1.078q-.61-.39-1.328-.39-.703 0-1.328.39-.625.375-1 1.093-.375.72-.375 1.625 0 .907.375 1.625.375.704 1 1.094t1.328.39"/><path fill="#e6e6e6" fill-rule="evenodd" d="m285.19 419.202-.578.06-1.05.41-.753.818-.468 1.051-.055.587v64.293l.055.586.468 1.051.753.819 1.05.41.577.06h124.873l.577-.06 1.045-.41.758-.819.462-1.05.06-.587v-64.293l-.06-.587-.462-1.05-.758-.82-1.045-.408-.577-.061z"/><path fill="#fff" fill-rule="evenodd" d="m292.898 427.97-.647.062-1.06.409-.764.819-.474 1.05v47.93l.474 1.051.764.819 1.06.41.647.054h109.06l.591-.055 1.06-.41.764-.818.474-1.05.056-.587v-46.757l-.056-.587-.474-1.05-.764-.819-1.06-.41-.591-.06z"/><path fill="#466bb0" fill-rule="evenodd" d="m301.657 469.353 8.793 5.028 14.616-5.028zm8.793-21.798-8.793 20.106 8.793-1.698z"/><path fill="#476baf" fill-rule="evenodd" d="M311.882 434.17v31.793l13.184 1.698z"/><path d="M317.888 439.71h85.22v29.132h-85.22z"/><path fill="#000" d="M334.994 460.386q-1.61 0-2.985-.782-1.36-.78-2.156-2.156-.797-1.375-.797-3.047 0-1.656.797-3.03.797-1.376 2.156-2.157 1.375-.797 2.985-.797 1.265 0 2.375.453t1.828 1.266l-.953.968q-.563-.671-1.422-1.03-.844-.36-1.813-.36-1.203 0-2.265.594-1.047.578-1.688 1.64-.625 1.063-.625 2.453 0 1.391.625 2.47.64 1.062 1.688 1.64 1.062.578 2.265.578 1.157 0 1.922-.36.781-.359 1.344-.953.422-.437.672-1.062.25-.64.312-1.406h-4.234v-1.266h5.5q.078.453.078.828 0 1.063-.344 2.063-.328 1-1.062 1.75-1.578 1.703-4.203 1.703m9.72 0q-.89 0-1.593-.344-.703-.36-1.094-.969-.375-.625-.375-1.406 0-1.297.97-2.016.983-.734 2.468-.734.734 0 1.36.172.64.156.968.36v-.5q0-.907-.64-1.454-.626-.562-1.61-.562-.672 0-1.266.296-.578.297-.906.829l-1.031-.766q.484-.734 1.328-1.156.86-.422 1.875-.422 1.672 0 2.61.875t.937 2.375v5.172h-1.297v-1.172h-.063q-.343.594-1.046 1.015-.704.407-1.594.407m.141-1.188q.688 0 1.266-.344.594-.359.938-.953.359-.593.359-1.297-.375-.265-.938-.421-.562-.157-1.187-.157-1.11 0-1.688.47-.562.452-.562 1.187 0 .671.5 1.093.516.422 1.312.422m8.727 1.063q-.5 0-.922-.157-.422-.156-.703-.437-.64-.61-.64-1.672v-4.781h-1.422v-1.235h1.421v-2.312h1.36v2.312h2v1.235h-2v4.437q0 .672.25 1 .312.344.89.344.485 0 .891-.266v1.329q-.234.109-.484.156t-.64.047m6.004.125q-1.172 0-2.11-.547-.921-.563-1.437-1.547-.515-.984-.515-2.219 0-1.172.484-2.172t1.39-1.593 2.079-.594q1.203 0 2.078.547.875.531 1.344 1.484.484.938.484 2.156 0 .188-.031.407h-6.469q.047.937.438 1.578.406.64 1.015.968.625.313 1.297.313 1.594 0 2.422-1.484l1.14.562q-.5.984-1.421 1.563-.907.578-2.188.578m2.344-5.188q-.031-.515-.281-1.031t-.797-.86q-.547-.359-1.375-.359-.969 0-1.64.625-.673.61-.876 1.625zm1.973-3.219h1.406l1.938 6.438h.015l2.063-6.438h1.39l2.063 6.422h.031l1.922-6.422h1.375l-2.625 8.157h-1.39l-2.11-6.516-2.094 6.516h-1.36zm15.772 8.407q-.89 0-1.594-.344-.703-.36-1.094-.969-.375-.625-.375-1.406 0-1.297.97-2.016.984-.734 2.468-.734.734 0 1.36.172.64.156.968.36v-.5q0-.907-.64-1.454-.626-.562-1.61-.562-.672 0-1.266.296-.578.297-.906.829l-1.031-.766q.484-.734 1.328-1.156.86-.422 1.875-.422 1.672 0 2.61.875t.937 2.375v5.172h-1.297v-1.172h-.062q-.344.594-1.047 1.015-.703.407-1.594.407m.14-1.188q.688 0 1.266-.344.594-.359.938-.953.359-.593.359-1.297-.375-.265-.937-.421-.563-.157-1.188-.157-1.11 0-1.687.47-.563.452-.563 1.187 0 .671.5 1.093.516.422 1.313.422m8.087.422-3.375-7.64h1.468l2.563 6.062h.031l2.469-6.063h1.469l-5.032 11.61h-1.406z"/><path d="M328.827 562.218h105.308v-.347h105.307"/><path stroke="#008200" stroke-linecap="butt" stroke-linejoin="round" stroke-width="2" d="M328.827 562.218h105.308v-.347h98.452"/><path fill="#008200" fill-rule="evenodd" stroke="#008200" stroke-linecap="butt" stroke-width="2" d="m532.587 561.871-2.249 2.25 6.18-2.25-6.18-2.249z"/><path d="M648.375 562.217h25.417v-81.323"/><path stroke="#008200" stroke-linecap="butt" stroke-linejoin="round" stroke-width="2" d="M648.375 562.217h25.417v-74.469"/><path fill="#008200" fill-rule="evenodd" stroke="#008200" stroke-linecap="butt" stroke-width="2" d="m673.792 487.748 2.25 2.25-2.25-6.18-2.249 6.18z"/><path d="M347.657 422.792v-76.126h-18.582"/><path stroke="#46f" stroke-dasharray="8 6" stroke-linecap="butt" stroke-linejoin="round" stroke-width="2" d="M347.657 422.792v-76.126H335.93"/><path fill="#46f" fill-rule="evenodd" stroke="#46f" stroke-linecap="butt" stroke-width="2" d="m335.929 346.666 2.249-2.25-6.18 2.25 6.18 2.249z"/><path d="m610.78 454.853-207.685-.567"/><path stroke="#46f" stroke-dasharray="8 6" stroke-linecap="butt" stroke-linejoin="round" stroke-width="2" d="m610.78 454.853-200.83-.548"/><path fill="#46f" fill-rule="evenodd" stroke="#46f" stroke-linecap="butt" stroke-width="2" d="m409.95 454.305 2.255-2.243-6.186 2.232 6.173 2.266z"/><path d="M255.217 310.686V221.3h32.945"/><path stroke="#46f" stroke-dasharray="8 6" stroke-linecap="butt" stroke-linejoin="round" stroke-width="2" d="M255.217 310.686V221.3h26.09"/><path fill="#46f" fill-rule="evenodd" stroke="#46f" stroke-linecap="butt" stroke-width="2" d="m281.307 221.3-2.249 2.25 6.18-2.25-6.18-2.25z"/><text xml:space="preserve" x="171.619" y="221.251" fill="#466baf" font-family="sans-serif" font-size="14.667" style="-inkscape-font-specification:sans-serif"><tspan x="171.619" y="221.251" font-weight="bold">配置 / 端点</tspan></text><text xml:space="preserve" x="28.672" y="29.193" fill="#466baf" font-family="sans-serif" font-size="14.667" style="-inkscape-font-specification:sans-serif"><tspan x="28.672" y="29.193" fill="#000">网格：mesh1</tspan></text><text xml:space="preserve" x="97.953" y="83.565" fill="#000" font-family="sans-serif" font-size="14.667" style="-inkscape-font-specification:sans-serif"><tspan x="97.953" y="83.565">网络：network1</tspan></text><text xml:space="preserve" x="154.957" y="142.323" fill="#000" font-family="sans-serif" font-size="14.667" style="-inkscape-font-specification:sans-serif"><tspan x="154.957" y="142.323">集群：cluster1</tspan></text><text xml:space="preserve" x="570.645" y="143.2" fill="#000" font-family="sans-serif" font-size="14.667" style="-inkscape-font-specification:sans-serif"><tspan x="570.645" y="143.2">集群：cluster2</tspan></text><text xml:space="preserve" x="519.124" y="81.011" fill="#000" font-family="sans-serif" font-size="14.667" style="-inkscape-font-specification:sans-serif"><tspan x="519.124" y="81.011">网络：network2</tspan></text></g><text xml:space="preserve" x="455.03" y="276.774" fill="#466baf" font-family="sans-serif" font-size="14.667" style="-inkscape-font-specification:sans-serif"><tspan x="455.03" y="276.774" font-weight="bold">端点</tspan></text></svg>