<svg xmlns="http://www.w3.org/2000/svg" fill="none" stroke-linecap="square" stroke-miterlimit="10" viewBox="0 0 960 720"><defs><path d="M0 0h960v720H0z" id="reuse-0"/></defs><clipPath id="a"><use href="#reuse-0"/></clipPath><g clip-path="url(#a)"><use href="#reuse-0"/><path d="M98.31 191.679c0-51.893 42.067-93.96 93.96-93.96h559.387a93.96 93.96 0 0 1 93.96 93.96v375.828c0 51.893-42.068 93.96-93.96 93.96H192.27c-51.893 0-93.96-42.067-93.96-93.96z"/><path stroke="#464646" stroke-linecap="butt" stroke-linejoin="round" stroke-width="2" d="M98.31 191.679c0-51.893 42.067-93.96 93.96-93.96h559.387a93.96 93.96 0 0 1 93.96 93.96v375.828c0 51.893-42.068 93.96-93.96 93.96H192.27c-51.893 0-93.96-42.067-93.96-93.96z"/><path d="M42.617 151.742c0-60.804 49.292-110.096 110.096-110.096h635.524a110.097 110.097 0 0 1 110.096 110.096v440.374c0 60.805-49.292 110.097-110.096 110.097H152.713c-60.804 0-110.096-49.292-110.096-110.097z"/><path stroke="#46f" stroke-dasharray="8 6" stroke-linecap="butt" stroke-linejoin="round" stroke-width="2" d="M42.617 151.742c0-60.804 49.292-110.096 110.096-110.096h635.524a110.097 110.097 0 0 1 110.096 110.096v440.374c0 60.805-49.292 110.097-110.096 110.097H152.713c-60.804 0-110.096-49.292-110.096-110.097z"/><path d="M172.534 197.982c0-23.449 19.01-42.458 42.458-42.458h169.825a42.46 42.46 0 0 1 42.457 42.458V588.09c0 23.449-19.008 42.458-42.457 42.458H214.992c-23.449 0-42.458-19.01-42.458-42.458z"/><path stroke="#ff6400" stroke-linecap="butt" stroke-linejoin="round" stroke-width="2" d="M172.534 197.982c0-23.449 19.01-42.458 42.458-42.458h169.825a42.46 42.46 0 0 1 42.457 42.458V588.09c0 23.449-19.008 42.458-42.457 42.458H214.992c-23.449 0-42.458-19.01-42.458-42.458z"/><path d="M43.367 6.133H192.25V62.51H43.367zM167.695 120.19H351.16v56.378H167.695z"/><path fill="#e6e6e6" fill-rule="evenodd" d="M272.356 189.562h151.87v98.657h-151.87z"/><path fill="#fff" fill-rule="evenodd" d="M280.088 200.525h133.837v75.17H280.088z"/><path fill="#000" d="M314.424 232.516h1.531l4.36 11.454h-1.5l-1.14-3.157h-4.97l-1.14 3.157h-1.5zm2.781 7.016-1.53-4.125-.454-1.234h-.062l-.454 1.234-1.53 4.125zm4.627-7.016h3.859q.953 0 1.766.438.828.422 1.312 1.203.485.766.485 1.75 0 .969-.485 1.75-.484.781-1.312 1.219-.813.422-1.766.422h-2.5v4.672h-1.36zm3.89 5.485q.64 0 1.125-.297.485-.313.75-.781.282-.485.282-1.016t-.282-1q-.265-.484-.75-.781-.484-.313-1.125-.313h-2.531v4.188zm5.326-5.485h1.36v11.454h-1.36zm10.355 11.704q-.875 0-1.688-.36-.797-.36-1.422-1.047-.625-.703-.89-1.687l1.297-.531q.265 1.015 1 1.671.734.657 1.734.657.984 0 1.672-.532.687-.53.687-1.468 0-.797-.578-1.313t-1.906-.969l-.734-.25q-1.203-.437-1.985-1.14-.765-.703-.765-1.953 0-.813.453-1.5.453-.703 1.25-1.125t1.797-.422q.984 0 1.718.375.735.375 1.172.906.453.516.625 1.031l-1.265.547q-.172-.594-.75-1.078-.563-.484-1.485-.484-.89 0-1.515.5t-.625 1.25q0 .672.531 1.093.531.422 1.61.797l.75.25q1.452.532 2.265 1.328.812.782.812 2.141 0 1.11-.562 1.86t-1.438 1.109q-.859.344-1.765.344m9.148 0q-1.172 0-2.11-.547-.921-.563-1.437-1.547-.515-.985-.515-2.219 0-1.172.484-2.172t1.39-1.594 2.079-.593q1.203 0 2.078.547.875.53 1.344 1.484.484.937.484 2.156 0 .188-.031.406h-6.469q.047.938.437 1.579.407.64 1.016.968.625.313 1.297.313 1.594 0 2.422-1.485l1.14.563q-.5.984-1.421 1.562-.907.579-2.188.579m2.344-5.188q-.031-.516-.281-1.031-.25-.516-.797-.86-.547-.359-1.375-.359-.969 0-1.64.625-.673.61-.876 1.625zm3.04-3.219h1.28v1.313h.078q.235-.672.922-1.11.688-.453 1.438-.453.562 0 .969.172v1.469q-.516-.266-1.157-.266-.593 0-1.093.344-.5.328-.797.906-.282.563-.282 1.219v4.563h-1.359zm5.365 0h1.453l2.531 6.563h.032l2.562-6.563h1.422l-3.328 8.157h-1.375zm12.515 8.407q-1.172 0-2.11-.547-.921-.563-1.437-1.547-.515-.985-.515-2.219 0-1.172.484-2.172t1.39-1.594 2.079-.593q1.203 0 2.078.547.875.53 1.344 1.484.484.937.484 2.156 0 .188-.031.406h-6.469q.047.938.438 1.579.406.64 1.015.968.625.313 1.297.313 1.594 0 2.422-1.485l1.14.563q-.5.984-1.421 1.562-.907.579-2.188.579m2.344-5.188q-.031-.516-.281-1.031-.25-.516-.797-.86-.547-.359-1.375-.359-.969 0-1.64.625-.673.61-.876 1.625zm3.04-3.219h1.28v1.313h.079q.234-.672.921-1.11.688-.453 1.438-.453.562 0 .969.172v1.469q-.516-.266-1.157-.266-.593 0-1.093.344-.5.328-.797.906-.281.563-.281 1.219v4.563h-1.36z"/><path fill="#e6e6e6" fill-rule="evenodd" d="m224.998 363.66-.671.078-1.22.532-.876 1.065-.544 1.366-.063.762v83.576l.063.762.544 1.366.875 1.064 1.22.532.672.08h145.128l.67-.08 1.215-.532.882-1.064.537-1.366.07-.762v-83.576l-.07-.762-.537-1.366-.882-1.065-1.214-.532-.671-.079z"/><path fill="#fff" fill-rule="evenodd" d="m235.126 375.055-.741.08-1.214.532-.876 1.064-.543 1.366v62.308l.543 1.366.876 1.064 1.214.532.741.072h124.935l.678-.072 1.214-.532.875-1.064.543-1.366.064-.762v-60.784l-.064-.762-.543-1.366-.875-1.064-1.214-.533-.678-.079z"/><path fill="#466bb0" fill-rule="evenodd" d="m247.216 428.85 11.618 6.536 19.311-6.535zm11.618-28.335-11.618 26.136 11.618-2.208z"/><path fill="#476baf" fill-rule="evenodd" d="M260.725 383.115v41.328l17.42 2.208z"/><path d="M268.661 390.312h94.771v37.87h-94.771z"/><path fill="#000" d="M297.304 403.655h1.36v11.453h-1.36zm6.498 11.703q-1.313 0-2.203-.61-.875-.61-1.235-1.578l1.204-.547q.312.735.906 1.14.61.407 1.328.407.766 0 1.312-.312.547-.313.547-.89 0-.517-.437-.83-.438-.312-1.36-.53l-1-.266q-.968-.234-1.593-.812t-.625-1.485q0-.703.422-1.234.421-.547 1.125-.828.703-.297 1.53-.297 1.063 0 1.907.469t1.188 1.296l-1.172.547q-.547-1.093-1.938-1.093-.672 0-1.187.312-.5.313-.5.797 0 .453.343.734.36.266 1.063.453l1.187.297q1.204.313 1.813.907.61.593.61 1.468 0 .75-.438 1.313t-1.172.875q-.734.297-1.625.297m7.77-.125q-.5 0-.923-.157-.422-.156-.703-.437-.64-.61-.64-1.672v-4.781h-1.422v-1.235h1.422v-2.312h1.359v2.312h2v1.235h-2v4.437q0 .672.25 1 .312.344.89.344.485 0 .891-.266v1.329q-.234.109-.484.156t-.64.047m3.607-9.782q-.406 0-.703-.28-.281-.298-.281-.704 0-.422.28-.687.298-.282.704-.282t.688.282q.28.265.28.687 0 .406-.28.703-.282.281-.688.281m-.672 1.5h1.36v8.157h-1.36zm7.161 8.407q-1.203 0-2.172-.563-.953-.578-1.484-1.562-.531-1-.531-2.203 0-1.204.53-2.188.532-1 1.485-1.578.97-.578 2.172-.578t2.156.578q.97.578 1.5 1.578.532.984.532 2.188 0 1.203-.532 2.203-.53.984-1.5 1.562-.953.563-2.156.563m0-1.22q.75 0 1.39-.374.657-.39 1.048-1.094.39-.703.39-1.64 0-.954-.39-1.657t-1.047-1.078q-.64-.375-1.39-.375t-1.407.375-1.047 1.078-.39 1.657q0 .937.39 1.64t1.047 1.094q.656.375 1.406.375m9.255 1.22q-1.11 0-2-.547-.89-.563-1.406-1.547-.5-.984-.5-2.234 0-1.235.5-2.22.515-1 1.406-1.562t2-.562q.922 0 1.656.437.735.422 1.125 1.047h.063l-.063-1.14v-3.375h1.36v11.453h-1.297v-1.203h-.063q-.39.609-1.125 1.03-.734.423-1.656.423m.14-1.22q.72 0 1.329-.39.625-.39 1-1.093.375-.704.375-1.625 0-.938-.375-1.641t-1-1.078q-.61-.39-1.328-.39-.704 0-1.329.39-.625.375-1 1.094-.375.718-.375 1.625 0 .906.375 1.625.375.703 1 1.093t1.329.39"/><path fill="#e6e6e6" fill-rule="evenodd" d="m226.356 527.514-.657.06-1.197.406-.858.81-.532 1.04-.063.574v63.617l.063.58.532 1.04.858.81 1.197.405.657.054h142.257l.664-.054 1.19-.405.927-.81.464-1.04.068-.58v-63.617l-.068-.575-.464-1.04-.927-.81-1.19-.404-.664-.06z"/><path fill="#fff" fill-rule="evenodd" d="M234.78 536.186h126.047v52.063H234.78z"/><path fill="#000" d="M288.664 568.328q-.875 0-1.688-.36-.797-.359-1.422-1.046-.625-.704-.89-1.688l1.297-.531q.265 1.015 1 1.672.734.656 1.734.656.984 0 1.672-.531.687-.532.687-1.47 0-.796-.578-1.312-.578-.515-1.906-.968l-.734-.25q-1.204-.438-1.985-1.14-.765-.704-.765-1.954 0-.813.453-1.5.453-.703 1.25-1.125t1.797-.422q.984 0 1.718.375.735.375 1.172.906.453.516.625 1.032l-1.265.546q-.172-.593-.75-1.078-.563-.484-1.485-.484-.89 0-1.515.5t-.625 1.25q0 .672.53 1.094.532.422 1.61.797l.75.25q1.453.53 2.266 1.328.812.78.812 2.14 0 1.11-.562 1.86t-1.438 1.11q-.859.343-1.765.343m9.148 0q-1.172 0-2.11-.547-.921-.563-1.437-1.547t-.516-2.219q0-1.172.485-2.172.484-1 1.39-1.593.907-.594 2.079-.594 1.203 0 2.078.547.875.531 1.343 1.484.485.938.485 2.156 0 .188-.031.407h-6.47q.048.937.438 1.578.407.64 1.016.969.625.312 1.297.312 1.594 0 2.422-1.484l1.14.562q-.5.985-1.422 1.563-.906.578-2.187.578m2.344-5.188q-.032-.515-.282-1.03-.25-.517-.796-.86-.547-.36-1.375-.36-.97 0-1.641.625-.672.61-.875 1.625zm3.039-3.218h1.281v1.312h.078q.235-.672.922-1.11.688-.452 1.438-.452.562 0 .968.171v1.47q-.515-.266-1.156-.266-.594 0-1.094.343-.5.328-.796.907-.282.562-.282 1.218v4.563h-1.359zm5.366 0h1.453l2.531 6.562h.031l2.563-6.562h1.422l-3.328 8.156h-1.375zm9.927-1.5q-.406 0-.703-.282-.281-.297-.281-.703 0-.422.28-.687.298-.282.704-.282t.687.282q.282.265.282.687 0 .406-.282.703-.28.282-.687.282m-.672 1.5h1.36v8.156h-1.36zm7.099 8.406q-1.188 0-2.141-.563-.938-.562-1.469-1.547-.515-.984-.515-2.218 0-1.235.515-2.22.531-1 1.469-1.562.953-.562 2.14-.562 1.329 0 2.235.625.906.61 1.281 1.64l-1.234.516q-.297-.765-.906-1.156-.594-.39-1.438-.39-.719 0-1.344.39t-1 1.11q-.375.702-.375 1.609 0 .906.375 1.61.375.702 1 1.108.625.391 1.344.391.86 0 1.484-.406.625-.406.938-1.14l1.203.515q-.406 1.015-1.328 1.64-.922.61-2.234.61m8.593 0q-1.172 0-2.11-.547-.921-.563-1.437-1.547-.515-.984-.515-2.219 0-1.172.484-2.172t1.39-1.593 2.079-.594q1.203 0 2.078.547.875.531 1.344 1.484.484.938.484 2.156 0 .188-.031.407h-6.47q.048.937.438 1.578.407.64 1.016.969.625.312 1.297.312 1.594 0 2.422-1.484l1.14.562q-.5.985-1.421 1.563-.907.578-2.188.578m2.344-5.188q-.031-.515-.281-1.03-.25-.517-.797-.86-.547-.36-1.375-.36-.97 0-1.64.625-.673.61-.876 1.625zm9.849-6.515h1.531l4.36 11.453h-1.5l-1.14-3.156h-4.97l-1.14 3.156h-1.5zm2.781 7.015-1.53-4.125-.454-1.234h-.062l-.454 1.234-1.53 4.125z"/><path fill="#767576" fill-rule="evenodd" d="m254.647 544.867-1.906.054-3.625.695-3.253 1.33-2.945 1.85-2.515 2.37-1.964 2.78-1.411 3.064-.738 3.41-.064 1.794.064 1.795.738 3.35 1.411 3.124 1.964 2.775 2.515 2.375 2.945 1.85 3.253 1.33 3.625.694 1.906.055 1.9-.055 3.56-.695 3.317-1.33 2.946-1.85 2.515-2.374 1.964-2.775 1.411-3.125.738-3.349.064-1.795-.064-1.795-.738-3.409-1.411-3.065-1.964-2.78-2.515-2.37-2.946-1.849-3.317-1.33-3.56-.695z"/><path d="M261.153 568.228h-13.076V555.91h13.076z"/><path stroke="#fff" stroke-linecap="butt" stroke-linejoin="round" stroke-width=".916" d="M261.153 568.228h-13.076V555.91h13.076z"/><path d="M250.528 555.91v-2.95"/><path stroke="#fff" stroke-linecap="round" stroke-miterlimit="105.678" stroke-width=".916" d="M250.528 555.91v-2.95"/><path d="M254.647 555.91v-2.95"/><path stroke="#fff" stroke-linecap="round" stroke-miterlimit="105.678" stroke-width=".916" d="M254.647 555.91v-2.95"/><path d="M258.76 555.91v-2.95"/><path stroke="#fff" stroke-linecap="round" stroke-miterlimit="105.678" stroke-width=".916" d="M258.76 555.91v-2.95"/><path d="M250.528 571.468v-3.01"/><path stroke="#fff" stroke-linecap="round" stroke-miterlimit="105.678" stroke-width=".916" d="M250.528 571.468v-3.01"/><path d="M254.647 571.468v-3.01"/><path stroke="#fff" stroke-linecap="round" stroke-miterlimit="105.678" stroke-width=".916" d="M254.647 571.468v-3.01"/><path d="M258.76 571.468v-3.01"/><path stroke="#fff" stroke-linecap="round" stroke-miterlimit="105.678" stroke-width=".916" d="M258.76 571.468v-3.01"/><path d="M247.955 566.089h-3.132"/><path stroke="#fff" stroke-linecap="round" stroke-miterlimit="105.678" stroke-width=".916" d="M247.955 566.089h-3.132"/><path d="M247.955 562.214h-3.132"/><path stroke="#fff" stroke-linecap="round" stroke-miterlimit="105.678" stroke-width=".916" d="M247.955 562.214h-3.132"/><path d="M247.955 558.34h-3.132"/><path stroke="#fff" stroke-linecap="round" stroke-miterlimit="105.678" stroke-width=".916" d="M247.955 558.34h-3.132"/><path d="M264.464 566.089h-3.189"/><path stroke="#fff" stroke-linecap="round" stroke-miterlimit="105.678" stroke-width=".916" d="M264.464 566.089h-3.189"/><path d="M264.464 562.214h-3.189"/><path stroke="#fff" stroke-linecap="round" stroke-miterlimit="105.678" stroke-width=".916" d="M264.464 562.214h-3.189"/><path d="M264.464 558.34h-3.189"/><path stroke="#fff" stroke-linecap="round" stroke-miterlimit="105.678" stroke-width=".916" d="M264.464 558.34h-3.189"/><path fill="#fff" fill-rule="evenodd" d="m253.787 559.325-.43.054-.738.29-.552.52-.307.695v2.43l.307.695.552.52.738.284h2.574l.737-.284.552-.52.308-.695v-2.43l-.308-.695-.552-.52-.737-.29-.43-.054z"/><path d="M547.992 197.982c0-23.449 19.009-42.458 42.458-42.458h169.825a42.46 42.46 0 0 1 42.457 42.458V588.09c0 23.449-19.009 42.458-42.457 42.458H590.45c-23.449 0-42.458-19.01-42.458-42.458z"/><path stroke="#ff6400" stroke-linecap="butt" stroke-linejoin="round" stroke-width="2" d="M547.992 197.982c0-23.449 19.009-42.458 42.458-42.458h169.825a42.46 42.46 0 0 1 42.457 42.458V588.09c0 23.449-19.009 42.458-42.457 42.458H590.45c-23.449 0-42.458-19.01-42.458-42.458z"/><path d="M535.153 120.19h183.464v56.378H535.153z"/><path fill="#e6e6e6" fill-rule="evenodd" d="M550.448 189.562h151.87v98.657h-151.87z"/><path fill="#fff" fill-rule="evenodd" d="M558.18 200.525h133.836v75.17H558.18z"/><path fill="#000" d="M592.516 232.516h1.531l4.36 11.454h-1.5l-1.141-3.157h-4.969l-1.14 3.157h-1.5zm2.781 7.016-1.531-4.125-.453-1.234h-.063l-.453 1.234-1.531 4.125zm4.626-7.016h3.86q.953 0 1.765.438.828.422 1.313 1.203.484.766.484 1.75 0 .969-.484 1.75-.485.781-1.313 1.219-.812.422-1.765.422h-2.5v4.672h-1.36zm3.89 5.485q.642 0 1.126-.297.484-.313.75-.781.281-.485.281-1.016t-.281-1q-.266-.484-.75-.781-.484-.313-1.125-.313h-2.531v4.188zm5.326-5.485h1.36v11.454h-1.36zm10.355 11.704q-.875 0-1.687-.36-.797-.36-1.422-1.047-.625-.703-.89-1.687l1.296-.531q.266 1.015 1 1.671.735.657 1.735.657.984 0 1.672-.532.687-.53.687-1.468 0-.797-.578-1.313t-1.906-.969l-.735-.25q-1.203-.437-1.984-1.14-.766-.703-.766-1.953 0-.813.453-1.5.454-.703 1.25-1.125.797-.422 1.797-.422.985 0 1.72.375.733.375 1.17.906.454.516.626 1.031l-1.266.547q-.172-.594-.75-1.078-.562-.484-1.484-.484-.89 0-1.516.5-.625.5-.625 1.25 0 .672.532 1.093.53.422 1.609.797l.75.25q1.453.532 2.266 1.328.812.782.812 2.141 0 1.11-.562 1.86t-1.438 1.109q-.86.344-1.766.344m9.149 0q-1.172 0-2.11-.547-.922-.563-1.437-1.547-.516-.985-.516-2.219 0-1.172.485-2.172.484-1 1.39-1.594.906-.593 2.078-.593 1.203 0 2.078.547.875.53 1.344 1.484.485.937.485 2.156 0 .188-.032.406h-6.468q.046.938.437 1.579.406.64 1.016.968.625.313 1.297.313 1.593 0 2.421-1.485l1.141.563q-.5.984-1.422 1.562-.906.579-2.187.579m2.343-5.188q-.03-.516-.28-1.031-.25-.516-.798-.86-.547-.359-1.375-.359-.968 0-1.64.625-.672.61-.875 1.625zm3.04-3.219h1.28v1.313h.08q.233-.672.92-1.11.688-.453 1.438-.453.563 0 .97.172v1.469q-.516-.266-1.157-.266-.594 0-1.094.344-.5.328-.797.906-.28.563-.28 1.219v4.563h-1.36zm5.365 0h1.454l2.53 6.563h.032l2.563-6.563h1.421l-3.328 8.157h-1.375zm12.516 8.407q-1.172 0-2.11-.547-.922-.563-1.437-1.547-.516-.985-.516-2.219 0-1.172.485-2.172.484-1 1.39-1.594.906-.593 2.078-.593 1.203 0 2.078.547.875.53 1.344 1.484.485.937.485 2.156 0 .188-.032.406h-6.468q.046.938.437 1.579.406.64 1.016.968.625.313 1.297.313 1.593 0 2.421-1.485l1.141.563q-.5.984-1.422 1.562-.906.579-2.187.579m2.343-5.188q-.03-.516-.28-1.031-.25-.516-.798-.86-.547-.359-1.375-.359-.968 0-1.64.625-.672.61-.875 1.625zm3.04-3.219h1.281v1.313h.078q.234-.672.922-1.11.687-.453 1.437-.453.563 0 .97.172v1.469q-.516-.266-1.157-.266-.594 0-1.094.344-.5.328-.797.906-.28.563-.28 1.219v4.563h-1.36z"/><path fill="#e6e6e6" fill-rule="evenodd" d="m600.455 363.66-.67.078-1.221.532-.876 1.065-.543 1.366-.064.762v83.576l.064.762.543 1.366.876 1.064 1.22.532.671.08h145.129l.67-.08 1.215-.532.882-1.064.536-1.366.07-.762v-83.576l-.07-.762-.536-1.366-.882-1.065-1.214-.532-.671-.079z"/><path fill="#fff" fill-rule="evenodd" d="m610.584 375.055-.741.08-1.214.532-.876 1.064-.543 1.366v62.308l.543 1.366.876 1.064 1.214.532.74.072H735.52l.677-.072 1.214-.532.876-1.064.543-1.366.064-.762v-60.784l-.064-.762-.543-1.366-.876-1.064-1.214-.533-.677-.079z"/><path fill="#466bb0" fill-rule="evenodd" d="m622.674 428.85 11.618 6.536 19.31-6.535zm11.618-28.335-11.618 26.136 11.618-2.208z"/><path fill="#476baf" fill-rule="evenodd" d="M636.183 383.115v41.328l17.42 2.208z"/><path d="M644.119 390.312h94.77v37.87h-94.77z"/><path fill="#000" d="M672.762 403.655h1.359v11.453h-1.36zm6.498 11.703q-1.313 0-2.203-.61-.875-.61-1.235-1.578l1.203-.547q.313.735.907 1.14.609.407 1.328.407.765 0 1.312-.312.547-.313.547-.89 0-.517-.437-.83-.438-.312-1.36-.53l-1-.266q-.969-.234-1.594-.812t-.625-1.485q0-.703.422-1.234.422-.547 1.125-.828.703-.297 1.532-.297 1.062 0 1.906.469t1.187 1.296l-1.172.547q-.546-1.093-1.937-1.093-.672 0-1.188.312-.5.313-.5.797 0 .453.344.734.36.266 1.063.453l1.187.297q1.203.313 1.813.907.61.593.61 1.468 0 .75-.438 1.313t-1.172.875q-.735.297-1.625.297m7.769-.125q-.5 0-.922-.157-.422-.156-.703-.437-.64-.61-.64-1.672v-4.781h-1.423v-1.235h1.422v-2.312h1.36v2.312h2v1.235h-2v4.437q0 .672.25 1 .312.344.89.344.485 0 .891-.266v1.329q-.234.109-.484.156t-.641.047m3.608-9.782q-.406 0-.703-.28-.281-.298-.281-.704 0-.422.28-.687.298-.282.704-.282t.687.282q.282.265.282.687 0 .406-.282.703-.28.281-.687.281m-.672 1.5h1.36v8.157h-1.36zm7.161 8.407q-1.203 0-2.172-.563-.953-.578-1.484-1.562-.531-1-.531-2.203 0-1.204.53-2.188.532-1 1.485-1.578.969-.578 2.172-.578t2.156.578q.969.578 1.5 1.578.532.984.532 2.188 0 1.203-.532 2.203-.531.984-1.5 1.562-.953.563-2.156.563m0-1.22q.75 0 1.39-.374.657-.39 1.048-1.094.39-.703.39-1.64 0-.954-.39-1.657-.391-.703-1.047-1.078-.641-.375-1.391-.375t-1.406.375-1.047 1.078-.39 1.657q0 .937.39 1.64t1.047 1.094q.656.375 1.406.375m9.255 1.22q-1.11 0-2-.547-.89-.563-1.406-1.547-.5-.984-.5-2.234 0-1.235.5-2.22.515-1 1.406-1.562t2-.562q.922 0 1.656.437.734.422 1.125 1.047h.063l-.063-1.14v-3.375h1.36v11.453h-1.297v-1.203h-.063q-.39.609-1.125 1.03-.734.423-1.656.423m.14-1.22q.72 0 1.329-.39.625-.39 1-1.093.375-.704.375-1.625 0-.938-.375-1.641t-1-1.078q-.61-.39-1.329-.39-.703 0-1.328.39-.625.375-1 1.094-.375.718-.375 1.625 0 .906.375 1.625.375.703 1 1.093t1.328.39"/><path d="m297.804 536.186-.567-80.189"/><path stroke="#46f" stroke-dasharray="8 6" stroke-linecap="butt" stroke-linejoin="round" stroke-width="2" d="m297.804 536.186-.519-73.335"/><path fill="#46f" fill-rule="evenodd" stroke="#46f" stroke-linecap="butt" stroke-width="2" d="m297.285 462.851 2.265 2.234-2.292-6.164-2.206 6.195z"/><path d="M301.928 363.432 558.18 238.11"/><path stroke="#46f" stroke-dasharray="8 6" stroke-linecap="butt" stroke-linejoin="round" stroke-width="2" d="m301.928 363.432 250.095-122.311"/><path fill="#46f" fill-rule="evenodd" stroke="#46f" stroke-linecap="butt" stroke-width="2" d="m552.023 241.12-1.033 3.01 4.563-4.736-6.54.694z"/><path d="M674.901 363.4 413.925 238.11"/><path stroke="#46f" stroke-dasharray="8 6" stroke-linecap="butt" stroke-linejoin="round" stroke-width="2" d="M674.901 363.4 420.104 241.077"/><path fill="#46f" fill-rule="evenodd" stroke="#46f" stroke-linecap="butt" stroke-width="2" d="m420.104 241.076 3-1.054-6.543-.647 4.597 4.702z"/><path d="M444.152 299.379h148.882v56.378H444.152zm265.213-106.812h92.504v56.378h-92.504zm-520.829.328h92.504v56.378h-92.504zm174.759 369.33h234.583"/><path stroke="#008200" stroke-linecap="butt" stroke-linejoin="round" stroke-width="2" d="M363.295 562.225h222.583"/><path fill="#008200" fill-rule="evenodd" stroke="#008200" stroke-linecap="butt" stroke-width="2" d="m585.878 565.529 9.076-3.304-9.076-3.303z"/><path d="M98.28 66.56h197.576v42.55H98.28z"/><path fill="#e6e6e6" fill-rule="evenodd" d="m602.356 527.514-.657.06-1.197.406-.858.81-.532 1.04-.063.574v63.617l.063.58.532 1.04.858.81 1.197.405.657.054h142.257l.664-.054 1.19-.405.927-.81.464-1.04.069-.58v-63.617l-.07-.575-.463-1.04-.927-.81-1.19-.404-.664-.06z"/><path fill="#fff" fill-rule="evenodd" d="M610.78 536.186h126.047v52.063H610.78z"/><path fill="#000" d="M665.208 568.328q-.875 0-1.688-.36-.797-.359-1.422-1.046-.625-.704-.89-1.688l1.297-.531q.265 1.015 1 1.672.734.656 1.734.656.984 0 1.672-.531.687-.532.687-1.47 0-.796-.578-1.312-.578-.515-1.906-.968l-.734-.25q-1.204-.438-1.985-1.14-.765-.704-.765-1.954 0-.813.453-1.5.453-.703 1.25-1.125t1.797-.422q.984 0 1.718.375.735.375 1.172.906.453.516.625 1.032l-1.265.546q-.172-.593-.75-1.078-.563-.484-1.485-.484-.89 0-1.515.5t-.625 1.25q0 .672.53 1.094.532.422 1.61.797l.75.25q1.453.53 2.266 1.328.812.78.812 2.14 0 1.11-.562 1.86t-1.438 1.11q-.859.343-1.765.343m9.148 0q-1.172 0-2.11-.547-.921-.563-1.437-1.547t-.516-2.219q0-1.172.485-2.172.484-1 1.39-1.593.907-.594 2.079-.594 1.203 0 2.078.547.875.531 1.343 1.484.485.938.485 2.156 0 .188-.031.407h-6.47q.048.937.438 1.578.407.64 1.016.969.625.312 1.297.312 1.594 0 2.422-1.484l1.14.562q-.5.985-1.422 1.563-.906.578-2.187.578m2.344-5.188q-.032-.515-.282-1.03-.25-.517-.796-.86-.547-.36-1.375-.36-.97 0-1.641.625-.672.61-.875 1.625zm3.039-3.218h1.281v1.312h.078q.235-.672.922-1.11.688-.452 1.438-.452.562 0 .969.171v1.47q-.516-.266-1.157-.266-.593 0-1.093.343-.5.328-.797.907-.282.562-.282 1.218v4.563h-1.359zm5.366 0h1.453l2.531 6.562h.031l2.563-6.562h1.422l-3.328 8.156h-1.375zm9.927-1.5q-.406 0-.703-.282-.281-.297-.281-.703 0-.422.28-.687.298-.282.704-.282t.687.282q.282.265.282.687 0 .406-.282.703-.28.282-.687.282m-.672 1.5h1.36v8.156h-1.36zm7.099 8.406q-1.188 0-2.141-.563-.938-.562-1.469-1.547-.515-.984-.515-2.218 0-1.235.515-2.22.531-1 1.469-1.562.953-.562 2.14-.562 1.329 0 2.235.625.906.61 1.281 1.64l-1.234.516q-.297-.765-.906-1.156-.594-.39-1.438-.39-.719 0-1.344.39t-1 1.11q-.375.702-.375 1.609 0 .906.375 1.61.375.702 1 1.108.625.391 1.344.391.86 0 1.484-.406.625-.406.938-1.14l1.203.515q-.406 1.015-1.328 1.64-.922.61-2.234.61m8.593 0q-1.172 0-2.11-.547-.921-.563-1.437-1.547-.515-.984-.515-2.219 0-1.172.484-2.172t1.39-1.593 2.079-.594q1.203 0 2.078.547.875.531 1.344 1.484.484.938.484 2.156 0 .188-.031.407h-6.47q.048.937.438 1.578.407.64 1.016.969.625.312 1.297.312 1.594 0 2.422-1.484l1.14.562q-.5.985-1.421 1.563-.907.578-2.188.578m2.344-5.188q-.031-.515-.281-1.03-.25-.517-.797-.86-.547-.36-1.375-.36-.97 0-1.64.625-.673.61-.876 1.625zm7.017-6.515h4.11q.858 0 1.624.406.766.39 1.203 1.094.453.703.453 1.578 0 .844-.422 1.469-.421.625-1.14.953v.062q.86.297 1.406 1 .547.703.547 1.64 0 .938-.484 1.688-.47.735-1.266 1.157-.781.406-1.703.406h-4.328zm4.11 4.937q.577 0 1.015-.265.437-.266.672-.688.25-.422.25-.875 0-.422-.235-.844t-.656-.687q-.422-.281-.984-.281h-2.813v3.64zm.312 5.219q.562 0 1.015-.281.469-.297.719-.75t.25-.938-.266-.937q-.25-.453-.718-.735-.47-.28-1.079-.28h-2.984v3.92z"/><path fill="#767576" fill-rule="evenodd" d="m630.647 544.867-1.906.054-3.625.695-3.253 1.33-2.945 1.85-2.515 2.37-1.964 2.78-1.411 3.064-.738 3.41-.064 1.794.064 1.795.738 3.35 1.411 3.124 1.964 2.775 2.515 2.375 2.945 1.85 3.253 1.33 3.625.694 1.906.055 1.9-.055 3.56-.695 3.318-1.33 2.945-1.85 2.515-2.374 1.964-2.775 1.411-3.125.738-3.349.064-1.795-.064-1.795-.738-3.409-1.411-3.065-1.964-2.78-2.515-2.37-2.945-1.849-3.318-1.33-3.56-.695z"/><path d="M637.153 568.228h-13.076V555.91h13.076z"/><path stroke="#fff" stroke-linecap="butt" stroke-linejoin="round" stroke-width=".916" d="M637.153 568.228h-13.076V555.91h13.076z"/><path d="M626.528 555.91v-2.95"/><path stroke="#fff" stroke-linecap="round" stroke-miterlimit="105.678" stroke-width=".916" d="M626.528 555.91v-2.95"/><path d="M630.647 555.91v-2.95"/><path stroke="#fff" stroke-linecap="round" stroke-miterlimit="105.678" stroke-width=".916" d="M630.647 555.91v-2.95"/><path d="M634.76 555.91v-2.95"/><path stroke="#fff" stroke-linecap="round" stroke-miterlimit="105.678" stroke-width=".916" d="M634.76 555.91v-2.95"/><path d="M626.528 571.468v-3.01"/><path stroke="#fff" stroke-linecap="round" stroke-miterlimit="105.678" stroke-width=".916" d="M626.528 571.468v-3.01"/><path d="M630.647 571.468v-3.01"/><path stroke="#fff" stroke-linecap="round" stroke-miterlimit="105.678" stroke-width=".916" d="M630.647 571.468v-3.01"/><path d="M634.76 571.468v-3.01"/><path stroke="#fff" stroke-linecap="round" stroke-miterlimit="105.678" stroke-width=".916" d="M634.76 571.468v-3.01"/><path d="M623.955 566.089h-3.132"/><path stroke="#fff" stroke-linecap="round" stroke-miterlimit="105.678" stroke-width=".916" d="M623.955 566.089h-3.132"/><path d="M623.955 562.214h-3.132"/><path stroke="#fff" stroke-linecap="round" stroke-miterlimit="105.678" stroke-width=".916" d="M623.955 562.214h-3.132"/><path d="M623.955 558.34h-3.132"/><path stroke="#fff" stroke-linecap="round" stroke-miterlimit="105.678" stroke-width=".916" d="M623.955 558.34h-3.132"/><path d="M640.464 566.089h-3.189"/><path stroke="#fff" stroke-linecap="round" stroke-miterlimit="105.678" stroke-width=".916" d="M640.464 566.089h-3.189"/><path d="M640.464 562.214h-3.189"/><path stroke="#fff" stroke-linecap="round" stroke-miterlimit="105.678" stroke-width=".916" d="M640.464 562.214h-3.189"/><path d="M640.464 558.34h-3.189"/><path stroke="#fff" stroke-linecap="round" stroke-miterlimit="105.678" stroke-width=".916" d="M640.464 558.34h-3.189"/><path fill="#fff" fill-rule="evenodd" d="m629.787 559.325-.43.054-.738.29-.552.52-.307.695v2.43l.307.695.552.52.738.284h2.574l.737-.284.552-.52.308-.695v-2.43l-.308-.695-.552-.52-.737-.29-.43-.054z"/><path d="m672.325 536.165.378-80.189"/><path stroke="#46f" stroke-dasharray="8 6" stroke-linecap="butt" stroke-linejoin="round" stroke-width="2" d="m672.325 536.165.345-73.335"/><path fill="#46f" fill-rule="evenodd" stroke="#46f" stroke-linecap="butt" stroke-width="2" d="m672.67 462.83 2.239 2.26-2.22-6.19-2.278 6.169z"/><path d="M247.286 363.415V236.357h32.882v.947"/><path stroke="#46f" stroke-dasharray="8 6" stroke-linecap="butt" stroke-linejoin="round" stroke-width="2" d="M247.286 363.415V236.357h26.094"/><path fill="#46f" fill-rule="evenodd" stroke="#46f" stroke-linecap="butt" stroke-width="2" d="m273.38 236.357-2.539 1.917 6.431-1.374-5.81-3.081z"/><path d="M727.292 363.4V238.11h-35.276"/><path stroke="#46f" stroke-dasharray="8 6" stroke-linecap="butt" stroke-linejoin="round" stroke-width="2" d="M727.292 363.4V238.11h-28.421"/><path fill="#46f" fill-rule="evenodd" stroke="#46f" stroke-linecap="butt" stroke-width="2" d="m698.87 238.11 2.25-2.25-6.18 2.25 6.18 2.249z"/><text xml:space="preserve" x="186.797" y="221.876" fill="#466baf" font-family="sans-serif" font-size="14.667" style="-inkscape-font-specification:sans-serif"><tspan x="186.797" y="221.876" font-weight="bold">配置 / 端点</tspan></text><text xml:space="preserve" x="710.367" y="221.853" fill="#466baf" font-family="sans-serif" font-size="14.667" style="-inkscape-font-specification:sans-serif"><tspan x="710.367" y="221.853" font-weight="bold">配置 / 端点</tspan></text><text xml:space="preserve" x="473.181" y="312.765" fill="#466baf" font-family="sans-serif" font-size="14.667" style="-inkscape-font-specification:sans-serif"><tspan x="473.181" y="312.765" font-weight="bold">端点</tspan></text><text xml:space="preserve" x="43.849" y="29.817" fill="#466baf" font-family="sans-serif" font-size="14.667" style="-inkscape-font-specification:sans-serif"><tspan x="43.849" y="29.817" fill="#000">网格：mesh1</tspan></text></g><text xml:space="preserve" x="113.13" y="84.19" fill="#000" font-family="sans-serif" font-size="14.667" style="-inkscape-font-specification:sans-serif"><tspan x="113.13" y="84.19">网络：network1</tspan></text><text xml:space="preserve" x="170.134" y="142.948" fill="#000" font-family="sans-serif" font-size="14.667" style="-inkscape-font-specification:sans-serif"><tspan x="170.134" y="142.948">集群：cluster1</tspan></text><text xml:space="preserve" x="544.604" y="143.825" fill="#000" font-family="sans-serif" font-size="14.667" style="-inkscape-font-specification:sans-serif"><tspan x="544.604" y="143.825">集群：cluster2</tspan></text></svg>