<svg xmlns="http://www.w3.org/2000/svg" fill="none" stroke-linecap="square" stroke-miterlimit="10" viewBox="0 0 960 720"><defs><path id="a" d="M0 0h960v720H0z"/></defs><clipPath id="b"><use href="#a"/></clipPath><g clip-path="url(#b)"><use href="#a"/><path d="M81.78 151.742c0-60.804 49.291-110.096 110.096-110.096h584.31a110.097 110.097 0 0 1 110.097 110.096v440.374c0 60.805-49.291 110.097-110.096 110.097h-584.31c-60.806 0-110.097-49.292-110.097-110.097z"/><path stroke="#46f" stroke-dasharray="8 6" stroke-linecap="butt" stroke-linejoin="round" stroke-width="2" d="M81.78 151.742c0-60.804 49.291-110.096 110.096-110.096h584.31a110.097 110.097 0 0 1 110.097 110.096v440.374c0 60.805-49.291 110.097-110.096 110.097h-584.31c-60.806 0-110.097-49.292-110.097-110.097z"/><path d="M138.28 191.679c0-51.893 42.068-93.96 93.96-93.96h500.648a93.96 93.96 0 0 1 93.96 93.96v375.828c0 51.893-42.067 93.96-93.96 93.96H232.24c-51.893 0-93.96-42.067-93.96-93.96z"/><path stroke="#464646" stroke-linecap="butt" stroke-linejoin="round" stroke-width="2" d="M138.28 191.679c0-51.893 42.068-93.96 93.96-93.96h500.648a93.96 93.96 0 0 1 93.96 93.96v375.828c0 51.893-42.067 93.96-93.96 93.96H232.24c-51.893 0-93.96-42.067-93.96-93.96z"/><path d="M200.25 191.993c0-20.14 16.327-36.468 36.467-36.468h145.868a36.47 36.47 0 0 1 36.467 36.468V594.08c0 20.14-16.327 36.468-36.467 36.468H236.717c-20.14 0-36.468-16.328-36.468-36.468z"/><path stroke="#ff6400" stroke-linecap="butt" stroke-linejoin="round" stroke-width="2" d="M200.25 191.993c0-20.14 16.327-36.468 36.467-36.468h145.868a36.47 36.47 0 0 1 36.467 36.468V594.08c0 20.14-16.327 36.468-36.467 36.468H236.717c-20.14 0-36.468-16.328-36.468-36.468z"/><path d="M75.367 6.133H224.25V62.51H75.367zM191.695 120.19H375.16v56.378H191.695z"/><path fill="#e6e6e6" fill-rule="evenodd" d="m234.356 527.514-.657.06-1.197.406-.858.81-.532 1.04-.063.574v63.617l.063.58.532 1.04.858.81 1.197.405.657.054h142.257l.664-.054 1.19-.405.927-.81.464-1.04.068-.58v-63.617l-.068-.575-.464-1.04-.927-.81-1.19-.404-.664-.06z"/><path fill="#fff" fill-rule="evenodd" d="M242.78 536.186h126.047v52.063H242.78z"/><path fill="#000" d="M296.664 568.328q-.875 0-1.688-.36-.797-.359-1.422-1.046-.625-.704-.89-1.688l1.297-.531q.265 1.015 1 1.672.734.656 1.734.656.984 0 1.672-.531.687-.532.687-1.47 0-.796-.578-1.312-.578-.515-1.906-.968l-.734-.25q-1.204-.438-1.985-1.14-.765-.704-.765-1.954 0-.813.453-1.5.453-.703 1.25-1.125t1.797-.422q.984 0 1.718.375.735.375 1.172.906.453.516.625 1.032l-1.265.546q-.172-.593-.75-1.078-.563-.484-1.485-.484-.89 0-1.515.5t-.625 1.25q0 .672.53 1.094.532.422 1.61.797l.75.25q1.453.53 2.266 1.328.812.78.812 2.14 0 1.11-.562 1.86t-1.438 1.11q-.859.343-1.765.343m9.148 0q-1.172 0-2.11-.547-.921-.563-1.437-1.547t-.516-2.219q0-1.172.485-2.172.484-1 1.39-1.593.907-.594 2.079-.594 1.203 0 2.078.547.875.531 1.343 1.484.485.938.485 2.156 0 .188-.031.407h-6.47q.048.937.438 1.578.407.64 1.016.969.625.312 1.297.312 1.594 0 2.422-1.484l1.14.562q-.5.985-1.422 1.563-.906.578-2.187.578m2.344-5.188q-.032-.515-.282-1.03-.25-.517-.796-.86-.547-.36-1.375-.36-.97 0-1.641.625-.672.61-.875 1.625zm3.039-3.218h1.281v1.312h.078q.235-.672.922-1.11.688-.452 1.438-.452.562 0 .968.171v1.47q-.515-.266-1.156-.266-.594 0-1.094.343-.5.328-.796.907-.282.562-.282 1.218v4.563h-1.359zm5.366 0h1.453l2.531 6.562h.031l2.563-6.562h1.422l-3.328 8.156h-1.375zm9.927-1.5q-.406 0-.703-.282-.281-.297-.281-.703 0-.422.28-.687.298-.282.704-.282t.687.282q.282.265.282.687 0 .406-.282.703-.28.282-.687.282m-.672 1.5h1.36v8.156h-1.36zm7.099 8.406q-1.188 0-2.141-.563-.938-.562-1.469-1.547-.515-.984-.515-2.218 0-1.235.515-2.22.531-1 1.469-1.562.953-.562 2.14-.562 1.329 0 2.235.625.906.61 1.281 1.64l-1.234.516q-.297-.765-.906-1.156-.594-.39-1.438-.39-.719 0-1.344.39t-1 1.11q-.375.702-.375 1.609 0 .906.375 1.61.375.702 1 1.108.625.391 1.344.391.86 0 1.484-.406.625-.406.938-1.14l1.203.515q-.406 1.015-1.328 1.64-.922.61-2.234.61m8.593 0q-1.172 0-2.11-.547-.921-.563-1.437-1.547-.515-.984-.515-2.219 0-1.172.484-2.172t1.39-1.593 2.079-.594q1.203 0 2.078.547.875.531 1.344 1.484.484.938.484 2.156 0 .188-.031.407h-6.47q.048.937.438 1.578.407.64 1.016.969.625.312 1.297.312 1.594 0 2.422-1.484l1.14.562q-.5.985-1.421 1.563-.907.578-2.188.578m2.344-5.188q-.031-.515-.281-1.03-.25-.517-.797-.86-.547-.36-1.375-.36-.97 0-1.64.625-.673.61-.876 1.625zm9.849-6.515h1.531l4.36 11.453h-1.5l-1.14-3.156h-4.97l-1.14 3.156h-1.5zm2.781 7.015-1.53-4.125-.454-1.234h-.062l-.454 1.234-1.53 4.125z"/><path fill="#767576" fill-rule="evenodd" d="m262.647 544.867-1.906.054-3.625.695-3.253 1.33-2.945 1.85-2.515 2.37-1.964 2.78-1.411 3.064-.738 3.41-.064 1.794.064 1.795.738 3.35 1.411 3.124 1.964 2.775 2.515 2.375 2.945 1.85 3.253 1.33 3.625.694 1.906.055 1.9-.055 3.56-.695 3.317-1.33 2.946-1.85 2.515-2.374 1.964-2.775 1.411-3.125.738-3.349.064-1.795-.064-1.795-.738-3.409-1.411-3.065-1.964-2.78-2.515-2.37-2.946-1.849-3.317-1.33-3.56-.695z"/><path d="M269.153 568.228h-13.076V555.91h13.076z"/><path stroke="#fff" stroke-linecap="butt" stroke-linejoin="round" stroke-width=".916" d="M269.153 568.228h-13.076V555.91h13.076z"/><path d="M258.528 555.91v-2.95"/><path stroke="#fff" stroke-linecap="round" stroke-miterlimit="105.678" stroke-width=".916" d="M258.528 555.91v-2.95"/><path d="M262.647 555.91v-2.95"/><path stroke="#fff" stroke-linecap="round" stroke-miterlimit="105.678" stroke-width=".916" d="M262.647 555.91v-2.95"/><path d="M266.76 555.91v-2.95"/><path stroke="#fff" stroke-linecap="round" stroke-miterlimit="105.678" stroke-width=".916" d="M266.76 555.91v-2.95"/><path d="M258.528 571.468v-3.01"/><path stroke="#fff" stroke-linecap="round" stroke-miterlimit="105.678" stroke-width=".916" d="M258.528 571.468v-3.01"/><path d="M262.647 571.468v-3.01"/><path stroke="#fff" stroke-linecap="round" stroke-miterlimit="105.678" stroke-width=".916" d="M262.647 571.468v-3.01"/><path d="M266.76 571.468v-3.01"/><path stroke="#fff" stroke-linecap="round" stroke-miterlimit="105.678" stroke-width=".916" d="M266.76 571.468v-3.01"/><path d="M255.955 566.089h-3.132"/><path stroke="#fff" stroke-linecap="round" stroke-miterlimit="105.678" stroke-width=".916" d="M255.955 566.089h-3.132"/><path d="M255.955 562.214h-3.132"/><path stroke="#fff" stroke-linecap="round" stroke-miterlimit="105.678" stroke-width=".916" d="M255.955 562.214h-3.132"/><path d="M255.955 558.34h-3.132"/><path stroke="#fff" stroke-linecap="round" stroke-miterlimit="105.678" stroke-width=".916" d="M255.955 558.34h-3.132"/><path d="M272.464 566.089h-3.189"/><path stroke="#fff" stroke-linecap="round" stroke-miterlimit="105.678" stroke-width=".916" d="M272.464 566.089h-3.189"/><path d="M272.464 562.214h-3.189"/><path stroke="#fff" stroke-linecap="round" stroke-miterlimit="105.678" stroke-width=".916" d="M272.464 562.214h-3.189"/><path d="M272.464 558.34h-3.189"/><path stroke="#fff" stroke-linecap="round" stroke-miterlimit="105.678" stroke-width=".916" d="M272.464 558.34h-3.189"/><path fill="#fff" fill-rule="evenodd" d="m261.787 559.325-.43.054-.738.29-.552.52-.307.695v2.43l.307.695.552.52.738.284h2.574l.737-.284.552-.52.308-.695v-2.43l-.308-.695-.552-.52-.737-.29-.43-.054z"/><path d="M552.91 190.34c0-19.228 15.588-34.815 34.815-34.815h139.253a34.814 34.814 0 0 1 34.815 34.814v405.395c0 19.228-15.587 34.815-34.815 34.815H587.725c-19.227 0-34.814-15.587-34.814-34.815z"/><path stroke="#ff6400" stroke-linecap="butt" stroke-linejoin="round" stroke-width="2" d="M552.91 190.34c0-19.228 15.588-34.815 34.815-34.815h139.253a34.814 34.814 0 0 1 34.815 34.814v405.395c0 19.228-15.587 34.815-34.815 34.815H587.725c-19.227 0-34.814-15.587-34.814-34.815z"/><path d="M543.153 120.19h183.464v56.378H543.153z"/><path fill="#e6e6e6" fill-rule="evenodd" d="M555.288 186.821h131.789v70.067h-131.79z"/><path fill="#fff" fill-rule="evenodd" d="M561.997 194.607h116.14v53.386h-116.14z"/><path fill="#000" d="M587.485 215.707h1.531l4.36 11.453h-1.5l-1.141-3.156h-4.969l-1.14 3.156h-1.5zm2.781 7.015-1.531-4.125-.453-1.234h-.063l-.453 1.234-1.531 4.125zm4.627-7.015h3.859q.953 0 1.766.437.828.422 1.312 1.203.484.766.484 1.75 0 .97-.484 1.75-.484.782-1.312 1.22-.813.421-1.766.421h-2.5v4.672h-1.36zm3.89 5.484q.64 0 1.125-.297.485-.312.75-.78.281-.485.281-1.017 0-.53-.28-1-.266-.484-.75-.78-.485-.313-1.126-.313h-2.531v4.187zm5.326-5.484h1.359v11.453h-1.36zm10.355 11.703q-.875 0-1.688-.36-.797-.359-1.422-1.046-.625-.703-.89-1.688l1.297-.531q.265 1.016 1 1.672.734.656 1.734.656.984 0 1.672-.531t.687-1.469q0-.797-.578-1.312-.578-.516-1.906-.97l-.734-.25q-1.204-.437-1.985-1.14-.765-.703-.765-1.953 0-.812.453-1.5.453-.703 1.25-1.125t1.797-.422q.984 0 1.718.375.735.375 1.172.906.453.516.625 1.032l-1.265.547q-.172-.594-.75-1.079-.563-.484-1.485-.484-.89 0-1.515.5t-.625 1.25q0 .672.53 1.094.532.422 1.61.797l.75.25q1.453.531 2.266 1.328.812.781.812 2.14 0 1.11-.562 1.86t-1.438 1.11q-.86.343-1.765.343m9.148 0q-1.172 0-2.11-.547-.921-.562-1.437-1.547t-.516-2.219q0-1.171.485-2.171.484-1 1.39-1.594.907-.594 2.079-.594 1.203 0 2.078.547.875.531 1.343 1.484.485.938.485 2.157 0 .187-.031.406h-6.47q.048.937.438 1.578.407.64 1.016.969.625.312 1.297.312 1.594 0 2.422-1.484l1.14.562q-.5.985-1.422 1.563-.906.578-2.187.578m2.344-5.188q-.032-.515-.282-1.03-.25-.516-.796-.86-.547-.36-1.375-.36-.97 0-1.641.625-.672.61-.875 1.625zm3.039-3.218h1.281v1.312h.078q.235-.672.922-1.11.688-.452 1.438-.452.562 0 .968.172v1.468q-.515-.265-1.156-.265-.594 0-1.094.343-.5.329-.796.907-.282.562-.282 1.218v4.563h-1.36zm5.366 0h1.453l2.531 6.562h.031l2.563-6.562h1.422l-3.328 8.156h-1.375zm12.515 8.406q-1.172 0-2.11-.547-.921-.562-1.437-1.547t-.516-2.219q0-1.171.485-2.171.484-1 1.39-1.594.907-.594 2.079-.594 1.203 0 2.078.547.875.531 1.343 1.484.485.938.485 2.157 0 .187-.031.406h-6.47q.048.937.438 1.578.407.64 1.016.969.625.312 1.297.312 1.594 0 2.422-1.484l1.14.562q-.5.985-1.422 1.563-.906.578-2.187.578m2.344-5.188q-.032-.515-.282-1.03-.25-.516-.796-.86-.547-.36-1.375-.36-.97 0-1.641.625-.672.61-.875 1.625zm3.039-3.218h1.281v1.312h.078q.235-.672.922-1.11.688-.452 1.438-.452.562 0 .968.172v1.468q-.515-.265-1.156-.265-.594 0-1.094.343-.5.329-.796.907-.282.562-.282 1.218v4.563h-1.359z"/><path d="m305.804 536.186.882-153.732"/><path stroke="#46f" stroke-dasharray="8 6" stroke-linecap="butt" stroke-linejoin="round" stroke-width="2" d="m305.804 536.186.842-146.878"/><path fill="#46f" fill-rule="evenodd" stroke="#46f" stroke-linecap="butt" stroke-width="2" d="m306.646 389.308 2.237 2.262-2.214-6.192-2.285 6.166z"/><path d="M316.863 311.914 561.997 221.3"/><path stroke="#46f" stroke-dasharray="8 6" stroke-linecap="butt" stroke-linejoin="round" stroke-width="2" d="m316.863 311.914 238.705-88.238"/><path fill="#46f" fill-rule="evenodd" stroke="#46f" stroke-linecap="butt" stroke-width="2" d="m555.568 223.676-1.33 2.89 5.017-4.252-6.576.033z"/><path d="M444.152 211.378h90.992v33.984h-90.992zm-241.616-41.475h90.992v56.378h-90.992zM138.28 66.56h197.576v42.55H138.28z"/><path fill="#e6e6e6" fill-rule="evenodd" d="m586.356 527.514-.657.06-1.197.406-.858.81-.532 1.04-.063.574v63.617l.063.58.532 1.04.858.81 1.197.405.657.054h142.257l.664-.054 1.19-.405.927-.81.464-1.04.069-.58v-63.617l-.07-.575-.463-1.04-.927-.81-1.19-.404-.664-.06z"/><path fill="#fff" fill-rule="evenodd" d="M594.78 536.186h126.047v52.063H594.78z"/><path fill="#000" d="M649.208 568.328q-.875 0-1.688-.36-.797-.359-1.422-1.046-.625-.704-.89-1.688l1.297-.531q.265 1.015 1 1.672.734.656 1.734.656.984 0 1.672-.531.687-.532.687-1.47 0-.796-.578-1.312-.578-.515-1.906-.968l-.734-.25q-1.204-.438-1.985-1.14-.765-.704-.765-1.954 0-.813.453-1.5.453-.703 1.25-1.125t1.797-.422q.984 0 1.718.375.735.375 1.172.906.453.516.625 1.032l-1.265.546q-.172-.593-.75-1.078-.563-.484-1.485-.484-.89 0-1.515.5t-.625 1.25q0 .672.53 1.094.532.422 1.61.797l.75.25q1.453.53 2.266 1.328.812.78.812 2.14 0 1.11-.562 1.86t-1.438 1.11q-.859.343-1.765.343m9.148 0q-1.172 0-2.11-.547-.921-.563-1.437-1.547t-.516-2.219q0-1.172.485-2.172.484-1 1.39-1.593.907-.594 2.079-.594 1.203 0 2.078.547.875.531 1.343 1.484.485.938.485 2.156 0 .188-.031.407h-6.47q.048.937.438 1.578.407.64 1.016.969.625.312 1.297.312 1.594 0 2.422-1.484l1.14.562q-.5.985-1.422 1.563-.906.578-2.187.578m2.344-5.188q-.032-.515-.282-1.03-.25-.517-.796-.86-.547-.36-1.375-.36-.97 0-1.641.625-.672.61-.875 1.625zm3.039-3.218h1.281v1.312h.078q.235-.672.922-1.11.688-.452 1.438-.452.562 0 .969.171v1.47q-.516-.266-1.157-.266-.593 0-1.093.343-.5.328-.797.907-.282.562-.282 1.218v4.563h-1.359zm5.366 0h1.453l2.531 6.562h.031l2.563-6.562h1.422l-3.328 8.156h-1.375zm9.927-1.5q-.406 0-.703-.282-.281-.297-.281-.703 0-.422.28-.687.298-.282.704-.282t.687.282q.282.265.282.687 0 .406-.282.703-.28.282-.687.282m-.672 1.5h1.36v8.156h-1.36zm7.099 8.406q-1.188 0-2.141-.563-.938-.562-1.469-1.547-.515-.984-.515-2.218 0-1.235.515-2.22.531-1 1.469-1.562.953-.562 2.14-.562 1.329 0 2.235.625.906.61 1.281 1.64l-1.234.516q-.297-.765-.906-1.156-.594-.39-1.438-.39-.719 0-1.344.39t-1 1.11q-.375.702-.375 1.609 0 .906.375 1.61.375.702 1 1.108.625.391 1.344.391.86 0 1.484-.406.625-.406.938-1.14l1.203.515q-.406 1.015-1.328 1.64-.922.61-2.234.61m8.593 0q-1.172 0-2.11-.547-.921-.563-1.437-1.547-.515-.984-.515-2.219 0-1.172.484-2.172t1.39-1.593 2.079-.594q1.203 0 2.078.547.875.531 1.344 1.484.484.938.484 2.156 0 .188-.031.407h-6.47q.048.937.438 1.578.407.64 1.016.969.625.312 1.297.312 1.594 0 2.422-1.484l1.14.562q-.5.985-1.421 1.563-.907.578-2.188.578m2.344-5.188q-.031-.515-.281-1.03-.25-.517-.797-.86-.547-.36-1.375-.36-.97 0-1.64.625-.673.61-.876 1.625zm7.017-6.515h4.11q.858 0 1.624.406.766.39 1.203 1.094.453.703.453 1.578 0 .844-.422 1.469-.421.625-1.14.953v.062q.86.297 1.406 1 .547.703.547 1.64 0 .938-.484 1.688-.47.735-1.266 1.157-.781.406-1.703.406h-4.328zm4.11 4.937q.577 0 1.015-.265.437-.266.672-.688.25-.422.25-.875 0-.422-.235-.844t-.656-.687q-.422-.281-.984-.281h-2.813v3.64zm.312 5.219q.562 0 1.015-.281.469-.297.719-.75t.25-.938-.266-.937q-.25-.453-.718-.735-.47-.28-1.079-.28h-2.984v3.92z"/><path fill="#767576" fill-rule="evenodd" d="m614.647 544.867-1.906.054-3.625.695-3.253 1.33-2.945 1.85-2.515 2.37-1.964 2.78-1.411 3.064-.738 3.41-.064 1.794.064 1.795.738 3.35 1.411 3.124 1.964 2.775 2.515 2.375 2.945 1.85 3.253 1.33 3.625.694 1.906.055 1.9-.055 3.56-.695 3.318-1.33 2.945-1.85 2.515-2.374 1.964-2.775 1.411-3.125.738-3.349.064-1.795-.064-1.795-.738-3.409-1.411-3.065-1.964-2.78-2.515-2.37-2.945-1.849-3.318-1.33-3.56-.695z"/><path d="M621.153 568.228h-13.076V555.91h13.076z"/><path stroke="#fff" stroke-linecap="butt" stroke-linejoin="round" stroke-width=".916" d="M621.153 568.228h-13.076V555.91h13.076z"/><path d="M610.528 555.91v-2.95"/><path stroke="#fff" stroke-linecap="round" stroke-miterlimit="105.678" stroke-width=".916" d="M610.528 555.91v-2.95"/><path d="M614.647 555.91v-2.95"/><path stroke="#fff" stroke-linecap="round" stroke-miterlimit="105.678" stroke-width=".916" d="M614.647 555.91v-2.95"/><path d="M618.76 555.91v-2.95"/><path stroke="#fff" stroke-linecap="round" stroke-miterlimit="105.678" stroke-width=".916" d="M618.76 555.91v-2.95"/><path d="M610.528 571.468v-3.01"/><path stroke="#fff" stroke-linecap="round" stroke-miterlimit="105.678" stroke-width=".916" d="M610.528 571.468v-3.01"/><path d="M614.647 571.468v-3.01"/><path stroke="#fff" stroke-linecap="round" stroke-miterlimit="105.678" stroke-width=".916" d="M614.647 571.468v-3.01"/><path d="M618.76 571.468v-3.01"/><path stroke="#fff" stroke-linecap="round" stroke-miterlimit="105.678" stroke-width=".916" d="M618.76 571.468v-3.01"/><path d="M607.955 566.089h-3.132"/><path stroke="#fff" stroke-linecap="round" stroke-miterlimit="105.678" stroke-width=".916" d="M607.955 566.089h-3.132"/><path d="M607.955 562.214h-3.132"/><path stroke="#fff" stroke-linecap="round" stroke-miterlimit="105.678" stroke-width=".916" d="M607.955 562.214h-3.132"/><path d="M607.955 558.34h-3.132"/><path stroke="#fff" stroke-linecap="round" stroke-miterlimit="105.678" stroke-width=".916" d="M607.955 558.34h-3.132"/><path d="M624.464 566.089h-3.189"/><path stroke="#fff" stroke-linecap="round" stroke-miterlimit="105.678" stroke-width=".916" d="M624.464 566.089h-3.189"/><path d="M624.464 562.214h-3.189"/><path stroke="#fff" stroke-linecap="round" stroke-miterlimit="105.678" stroke-width=".916" d="M624.464 562.214h-3.189"/><path d="M624.464 558.34h-3.189"/><path stroke="#fff" stroke-linecap="round" stroke-miterlimit="105.678" stroke-width=".916" d="M624.464 558.34h-3.189"/><path fill="#fff" fill-rule="evenodd" d="m613.787 559.325-.43.054-.738.29-.552.52-.307.695v2.43l.307.695.552.52.738.284h2.574l.737-.284.552-.52.308-.695v-2.43l-.308-.695-.552-.52-.737-.29-.43-.054z"/><path fill="#e6e6e6" fill-rule="evenodd" d="M286.383 186.821h131.79v70.067h-131.79z"/><path fill="#fff" fill-rule="evenodd" d="M293.093 194.607h116.14v53.386h-116.14z"/><path fill="#000" d="M318.58 215.707h1.532l4.36 11.453h-1.5l-1.141-3.156h-4.969l-1.14 3.156h-1.5zm2.782 7.015-1.531-4.125-.453-1.234h-.063l-.453 1.234-1.531 4.125zm4.626-7.015h3.86q.953 0 1.765.437.828.422 1.313 1.203.484.766.484 1.75 0 .97-.484 1.75-.485.782-1.313 1.22-.812.421-1.765.421h-2.5v4.672h-1.36zm3.891 5.484q.64 0 1.125-.297.484-.312.75-.78.281-.485.281-1.017 0-.53-.281-1-.266-.484-.75-.78-.484-.313-1.125-.313h-2.531v4.187zm5.325-5.484h1.36v11.453h-1.36zm10.356 11.703q-.875 0-1.688-.36-.797-.359-1.422-1.046-.625-.703-.89-1.688l1.296-.531q.266 1.016 1 1.672.735.656 1.735.656.984 0 1.672-.531t.687-1.469q0-.797-.578-1.312-.578-.516-1.906-.97l-.735-.25q-1.203-.437-1.984-1.14-.766-.703-.766-1.953 0-.812.454-1.5.453-.703 1.25-1.125t1.796-.422q.985 0 1.72.375.734.375 1.171.906.453.516.625 1.032l-1.266.547q-.171-.594-.75-1.079-.562-.484-1.484-.484-.89 0-1.516.5-.625.5-.625 1.25 0 .672.532 1.094.53.422 1.609.797l.75.25q1.453.531 2.266 1.328.812.781.812 2.14 0 1.11-.562 1.86t-1.438 1.11q-.86.343-1.765.343m9.148 0q-1.172 0-2.11-.547-.921-.562-1.437-1.547t-.516-2.219q0-1.171.485-2.171.484-1 1.39-1.594.907-.594 2.078-.594 1.204 0 2.079.547.875.531 1.343 1.484.485.938.485 2.157 0 .187-.032.406h-6.468q.047.937.437 1.578.406.64 1.016.969.625.312 1.297.312 1.593 0 2.422-1.484l1.14.562q-.5.985-1.422 1.563-.906.578-2.187.578m2.344-5.188q-.032-.515-.282-1.03-.25-.516-.797-.86-.546-.36-1.375-.36-.968 0-1.64.625-.672.61-.875 1.625zm3.039-3.218h1.281v1.312h.078q.235-.672.922-1.11.688-.452 1.438-.452.562 0 .968.172v1.468q-.515-.265-1.156-.265-.594 0-1.094.343-.5.329-.797.907-.28.562-.28 1.218v4.563h-1.36zm5.366 0h1.453l2.531 6.562h.031l2.563-6.562h1.422l-3.329 8.156h-1.375zm12.515 8.406q-1.172 0-2.11-.547-.921-.562-1.437-1.547t-.516-2.219q0-1.171.485-2.171.484-1 1.39-1.594.907-.594 2.078-.594 1.204 0 2.079.547.875.531 1.343 1.484.485.938.485 2.157 0 .187-.032.406h-6.468q.047.937.437 1.578.406.64 1.016.969.625.312 1.297.312 1.593 0 2.422-1.484l1.14.562q-.5.985-1.422 1.563-.906.578-2.187.578m2.344-5.188q-.032-.515-.282-1.03-.25-.516-.797-.86-.546-.36-1.375-.36-.968 0-1.64.625-.672.61-.875 1.625zm3.039-3.218h1.281v1.312h.078q.235-.672.922-1.11.688-.452 1.438-.452.562 0 .968.172v1.468q-.515-.265-1.156-.265-.594 0-1.094.343-.5.329-.797.907-.28.562-.28 1.218v4.563h-1.36z"/><path fill="#e6e6e6" fill-rule="evenodd" d="m250.05 312.3-.578.06-1.049.401-.753.802-.467 1.03-.055.575v63l.055.575.467 1.03.753.802 1.05.4.576.06h124.78l.578-.06 1.044-.4.758-.802.461-1.03.06-.575v-63l-.06-.575-.461-1.03-.758-.802-1.044-.401-.577-.06z"/><path fill="#fff" fill-rule="evenodd" d="m258.758 320.891-.638.06-1.043.4-.753.803-.467 1.03v46.968l.467 1.03.753.802 1.043.401.638.054h107.418l.583-.054 1.044-.4.752-.803.467-1.03.055-.574v-45.82l-.055-.574-.467-1.03-.752-.802-1.044-.401-.583-.06z"/><path fill="#466bb0" fill-rule="evenodd" d="m269.153 361.443 9.989 4.926 16.603-4.926zm9.989-21.36-9.99 19.701 9.99-1.664z"/><path fill="#476baf" fill-rule="evenodd" d="M280.768 326.967v31.153l14.977 1.664z"/><path d="M287.591 332.392h81.484v28.547H287.59z"/><path fill="#000" d="M309.59 341.072h1.36v11.454h-1.36zm6.498 11.704q-1.312 0-2.203-.61-.875-.61-1.234-1.578l1.203-.547q.312.735.906 1.14.61.407 1.328.407.766 0 1.313-.312.547-.313.547-.891 0-.516-.438-.828-.437-.313-1.36-.531l-1-.266q-.968-.234-1.593-.813-.625-.578-.625-1.484 0-.703.422-1.234.422-.547 1.125-.828.703-.297 1.531-.297 1.063 0 1.906.468.844.47 1.188 1.297l-1.172.547q-.547-1.094-1.938-1.094-.671 0-1.187.313-.5.312-.5.797 0 .453.344.734.359.266 1.062.453l1.188.297q1.203.313 1.812.906.61.594.61 1.47 0 .75-.438 1.312-.437.562-1.172.875-.734.297-1.625.297m7.77-.125q-.5 0-.922-.157-.422-.156-.704-.437-.64-.61-.64-1.672v-4.781h-1.422v-1.235h1.422v-2.312h1.36v2.312h2v1.235h-2v4.437q0 .672.25 1 .312.344.89.344.484 0 .89-.266v1.328q-.234.11-.484.157t-.64.047m3.607-9.782q-.406 0-.703-.28-.281-.298-.281-.704 0-.422.281-.688.297-.28.703-.28.407 0 .688.28.281.266.281.688 0 .406-.281.703-.281.281-.688.281m-.672 1.5h1.36v8.157h-1.36zm7.161 8.407q-1.203 0-2.171-.563-.954-.578-1.485-1.562-.531-1-.531-2.204 0-1.203.531-2.187.531-1 1.485-1.578.968-.578 2.171-.578 1.204 0 2.157.578.968.578 1.5 1.578.53.984.53 2.187 0 1.204-.53 2.204-.532.984-1.5 1.562-.953.563-2.157.563m0-1.22q.75 0 1.391-.374.656-.39 1.047-1.094.39-.703.39-1.64 0-.954-.39-1.657t-1.047-1.078q-.64-.375-1.39-.375t-1.407.375-1.047 1.078-.39 1.656q0 .938.39 1.641t1.047 1.094q.656.375 1.406.375m9.255 1.22q-1.11 0-2-.547-.89-.563-1.406-1.547-.5-.985-.5-2.235 0-1.234.5-2.218.516-1 1.406-1.563t2-.562q.922 0 1.656.437.735.422 1.125 1.047h.063l-.063-1.14v-3.376h1.36v11.454h-1.297v-1.204h-.063q-.39.61-1.125 1.032-.734.422-1.656.422m.14-1.22q.72 0 1.329-.39.625-.39 1-1.094.375-.703.375-1.625 0-.937-.375-1.64t-1-1.078q-.61-.39-1.328-.39-.703 0-1.328.39-.625.375-1 1.093-.375.72-.375 1.625 0 .907.375 1.625.375.704 1 1.094t1.328.39"/><path fill="#e6e6e6" fill-rule="evenodd" d="m325.19 419.202-.578.06-1.05.41-.753.818-.468 1.051-.055.587v64.293l.055.586.468 1.051.753.819 1.05.41.577.06h124.873l.577-.06 1.045-.41.758-.819.462-1.05.06-.587v-64.293l-.06-.587-.462-1.05-.758-.82-1.045-.408-.577-.061z"/><path fill="#fff" fill-rule="evenodd" d="m332.898 427.97-.647.062-1.06.409-.764.819-.474 1.05v47.93l.474 1.051.764.819 1.06.41.647.054h109.06l.591-.055 1.06-.41.764-.818.474-1.05.056-.587v-46.757l-.056-.587-.474-1.05-.764-.819-1.06-.41-.591-.06z"/><path fill="#466bb0" fill-rule="evenodd" d="m341.657 469.353 8.793 5.028 14.616-5.028zm8.793-21.798-8.793 20.106 8.793-1.698z"/><path fill="#476baf" fill-rule="evenodd" d="M351.882 434.17v31.793l13.184 1.698z"/><path d="M357.888 439.71h85.22v29.132h-85.22z"/><path fill="#000" d="M374.994 460.386q-1.61 0-2.985-.782-1.36-.78-2.156-2.156-.797-1.375-.797-3.047 0-1.656.797-3.03.797-1.376 2.156-2.157 1.375-.797 2.985-.797 1.265 0 2.375.453t1.828 1.266l-.953.968q-.563-.671-1.422-1.03-.844-.36-1.813-.36-1.203 0-2.265.594-1.047.578-1.688 1.64-.625 1.063-.625 2.453 0 1.391.625 2.47.64 1.062 1.688 1.64 1.062.578 2.265.578 1.157 0 1.922-.36.781-.359 1.344-.953.422-.437.672-1.062.25-.64.312-1.406h-4.234v-1.266h5.5q.078.453.078.828 0 1.063-.344 2.063-.328 1-1.062 1.75-1.578 1.703-4.203 1.703m9.72 0q-.89 0-1.593-.344-.703-.36-1.094-.969-.375-.625-.375-1.406 0-1.297.97-2.016.983-.734 2.468-.734.734 0 1.36.172.64.156.968.36v-.5q0-.907-.64-1.454-.626-.562-1.61-.562-.672 0-1.266.296-.578.297-.906.829l-1.031-.766q.484-.734 1.328-1.156.86-.422 1.875-.422 1.672 0 2.61.875t.937 2.375v5.172h-1.297v-1.172h-.063q-.343.594-1.046 1.015-.704.407-1.594.407m.141-1.188q.688 0 1.266-.344.594-.359.938-.953.359-.593.359-1.297-.375-.265-.938-.421-.562-.157-1.187-.157-1.11 0-1.688.47-.562.452-.562 1.187 0 .671.5 1.093.516.422 1.312.422m8.727 1.063q-.5 0-.922-.157-.422-.156-.703-.437-.64-.61-.64-1.672v-4.781h-1.422v-1.235h1.421v-2.312h1.36v2.312h2v1.235h-2v4.437q0 .672.25 1 .312.344.89.344.485 0 .891-.266v1.329q-.234.109-.484.156t-.64.047m6.004.125q-1.172 0-2.11-.547-.921-.563-1.437-1.547-.515-.984-.515-2.219 0-1.172.484-2.172t1.39-1.593 2.079-.594q1.203 0 2.078.547.875.531 1.344 1.484.484.938.484 2.156 0 .188-.031.407h-6.469q.047.937.438 1.578.406.64 1.015.968.625.313 1.297.313 1.594 0 2.422-1.484l1.14.562q-.5.984-1.421 1.563-.907.578-2.188.578m2.344-5.188q-.031-.515-.281-1.031t-.797-.86q-.547-.359-1.375-.359-.969 0-1.64.625-.673.61-.876 1.625zm1.973-3.219h1.406l1.938 6.438h.015l2.063-6.438h1.39l2.063 6.422h.031l1.922-6.422h1.375l-2.625 8.157h-1.39l-2.11-6.516-2.094 6.516h-1.36zm15.772 8.407q-.89 0-1.594-.344-.703-.36-1.094-.969-.375-.625-.375-1.406 0-1.297.97-2.016.984-.734 2.468-.734.734 0 1.36.172.64.156.968.36v-.5q0-.907-.64-1.454-.626-.562-1.61-.562-.672 0-1.266.296-.578.297-.906.829l-1.031-.766q.484-.734 1.328-1.156.86-.422 1.875-.422 1.672 0 2.61.875t.937 2.375v5.172h-1.297v-1.172h-.062q-.344.594-1.047 1.015-.703.407-1.594.407m.14-1.188q.688 0 1.266-.344.594-.359.938-.953.359-.593.359-1.297-.375-.265-.937-.421-.563-.157-1.188-.157-1.11 0-1.687.47-.563.452-.563 1.187 0 .671.5 1.093.516.422 1.313.422m8.087.422-3.375-7.64h1.468l2.563 6.062h.031l2.469-6.063h1.469l-5.032 11.61h-1.406z"/><path d="M368.827 562.218h112.977v.063H594.78"/><path stroke="#008200" stroke-linecap="butt" stroke-linejoin="round" stroke-width="2" d="M368.827 562.218h112.977v.063h106.122"/><path fill="#008200" fill-rule="evenodd" stroke="#008200" stroke-linecap="butt" stroke-width="2" d="m587.926 562.28-2.25 2.25 6.18-2.25-6.18-2.248z"/><path d="M657.804 536.186v-81.92H443.095"/><path stroke="#46f" stroke-dasharray="8 6" stroke-linecap="butt" stroke-linejoin="round" stroke-width="2" d="M657.804 536.186v-81.92H449.949"/><path fill="#46f" fill-rule="evenodd" stroke="#46f" stroke-linecap="butt" stroke-width="2" d="m449.95 454.265 2.249-2.25-6.18 2.25 6.18 2.25z"/><path d="M393.264 421.69v-75.024h-24.19"/><path stroke="#46f" stroke-dasharray="8 6" stroke-linecap="butt" stroke-linejoin="round" stroke-width="2" d="M393.264 421.69v-75.024h-17.335"/><path fill="#46f" fill-rule="evenodd" stroke="#46f" stroke-linecap="butt" stroke-width="2" d="m375.929 346.666 2.249-2.25-6.18 2.25 6.18 2.249z"/><path d="M263.217 310.686V221.3h32.945"/><path stroke="#46f" stroke-dasharray="8 6" stroke-linecap="butt" stroke-linejoin="round" stroke-width="2" d="M263.217 310.686V221.3h26.09"/><path fill="#46f" fill-rule="evenodd" stroke="#46f" stroke-linecap="butt" stroke-width="2" d="m289.307 221.3-2.249 2.25 6.18-2.25-6.18-2.25z"/><text xml:space="preserve" x="88.603" y="29.025" fill="#000" font-family="Helvetica" font-size="14.667" style="-inkscape-font-specification:Helvetica"><tspan x="88.603" y="29.025">网格：mesh1</tspan></text><text xml:space="preserve" x="158.875" y="85.548" fill="#000" font-family="Helvetica" font-size="14.667" style="-inkscape-font-specification:Helvetica"><tspan x="158.875" y="85.548">网络：network1</tspan></text><text xml:space="preserve" x="194.01" y="141.307" fill="#000" font-family="Helvetica" font-size="14.667" style="-inkscape-font-specification:Helvetica"><tspan x="194.01" y="141.307">集群：cluster1</tspan></text><text xml:space="preserve" x="540.021" y="142.834" fill="#000" font-family="Helvetica" font-size="14.667" style="-inkscape-font-specification:Helvetica"><tspan x="540.021" y="142.834"> 集群：cluster2</tspan></text><text xml:space="preserve" x="214.634" y="181.025" fill="#466baf" font-size="16"><tspan x="214.634" y="181.025" font-family="sans-serif" font-weight="bold" style="-inkscape-font-specification:sans-serif">配置 / 端点</tspan></text><text xml:space="preserve" x="468.408" y="232.826" fill="#466baf" font-size="16"><tspan x="468.408" y="232.826" font-family="sans-serif" font-weight="bold" style="-inkscape-font-specification:sans-serif">端点</tspan></text></g></svg>