<svg xmlns="http://www.w3.org/2000/svg" width="297mm" height="210mm" viewBox="0 0 297 210"><defs><path d="M183.881 33.676h63.61v18.709h-63.61z"/><path id="a" fill="#000" stroke="#000" d="m-10 0-4 4L0 0l-14-4z"/><path id="b" fill="#000" stroke="#000" d="m10 0 4-4L0 0l14 4z"/><path id="c" fill="#000" stroke="#000" d="m-10 0-4 4L0 0l-14-4Z"/><path id="l" d="M58.265 35.28h226.11v14.967H58.265z"/><path id="e" fill="#fca" stroke="#0f627a" d="M29.388 84.446h87.687v17.663H29.388z"/><path id="f" fill="#7ec8f8" stroke="#0f627a" d="M31.003 118.133h71.094v20.312H31.003z"/><marker id="i" orient="auto" overflow="visible" refX="0" refY="0"><use fill-rule="evenodd" stroke-width=".8pt" href="#a"/></marker><marker id="g" orient="auto" overflow="visible" refX="0" refY="0"><use fill-rule="evenodd" stroke-width=".8pt" href="#a"/></marker><marker orient="auto" overflow="visible"><use fill-rule="evenodd" stroke-width=".8pt" href="#b"/></marker><marker orient="auto" overflow="visible"><use fill-rule="evenodd" stroke-width=".8pt" href="#b"/></marker><marker id="h" orient="auto" overflow="visible" refX="0" refY="0"><use fill-rule="evenodd" stroke-width=".8pt" href="#c"/></marker><marker id="j" orient="auto" overflow="visible" refX="0" refY="0"><use fill-rule="evenodd" stroke-width=".8pt" href="#c"/></marker><linearGradient id="d"><stop offset="0" stop-color="#030000"/><stop offset="1" stop-color="#030000" stop-opacity="0"/></linearGradient><linearGradient id="k" x1="58.612" x2="126.309" y1="39.395" y2="39.395" gradientUnits="userSpaceOnUse" href="#d"/></defs><path fill="none" stroke="#000003" stroke-width=".944" d="M14.631 55.795h123.633v128.439H14.631z" opacity=".94"/><text xml:space="preserve" x="17.105" y="67.886" stroke-width=".265" font-family="sans-serif" font-size="10.583" font-weight="400" style="line-height:1.25"><tspan x="17.105" y="67.886">集群 1</tspan></text><g transform="translate(-2.646)"><use stroke-width=".977" href="#e" opacity=".94"/><text xml:space="preserve" x="51.42" y="96.648" stroke-width=".265" font-family="sans-serif" font-size="10.583" font-weight="400" style="line-height:1.25"><tspan x="51.42" y="96.648" font-family="Arial" style="-inkscape-font-specification:Arial">中间 CA</tspan></text></g><path fill="#7ec8f8" fill-opacity=".947" stroke="#0f627a" d="M35.298 137.684h71.094v20.312H35.298z" opacity=".94"/><path fill="#7ec8f8" fill-opacity=".947" stroke="#0f627a" d="M43.305 145.729h71.094v20.312H43.305z" opacity=".94"/><g transform="translate(20.176 35.08)"><use fill-opacity=".947" href="#f" opacity=".94"/><text xml:space="preserve" x="45.923" y="131.491" stroke-width=".265" font-family="sans-serif" font-size="10.583" font-weight="400" style="line-height:1.25"><tspan x="45.923" y="131.491">工作负载</tspan></text></g><path fill="none" stroke="#000" stroke-width=".871" marker-end="url(#g)" d="m70.244 101.27.268 33.923"/><path fill="none" stroke="#000003" stroke-width=".944" d="M150.93 56.062h123.633v128.439H150.93z" opacity=".94"/><text xml:space="preserve" x="222.195" y="68.154" stroke-width=".265" font-family="sans-serif" font-size="10.583" font-weight="400" style="line-height:1.25"><tspan x="222.195" y="68.154">集群 2</tspan></text><g transform="translate(133.653 .267)"><use stroke-width=".977" href="#e" opacity=".94"/><text xml:space="preserve" x="51.676" y="96.904" stroke-width=".265" font-family="sans-serif" font-size="10.583" font-weight="400" style="line-height:1.25"><tspan x="51.676" y="96.904" font-family="Arial" style="-inkscape-font-specification:Arial">中间 CA</tspan></text></g><path fill="#7ec8f8" fill-opacity=".947" stroke="#0f627a" d="M171.597 137.951h71.094v20.312h-71.094z" opacity=".94"/><path fill="#7ec8f8" fill-opacity=".947" stroke="#0f627a" d="M179.605 145.996h71.094v20.312h-71.094z" opacity=".94"/><g transform="translate(156.476 35.346)"><use fill-opacity=".947" href="#f" opacity=".94"/><text xml:space="preserve" x="46.452" y="131.491" stroke-width=".265" font-family="sans-serif" font-size="10.583" font-weight="400" style="line-height:1.25"><tspan x="46.452" y="131.491">工作负载</tspan></text></g><path fill="none" stroke="#000" stroke-width=".871" marker-end="url(#h)" d="m206.543 101.537.268 33.923"/><g transform="translate(10.119 -11.177)"><path fill="#98e797" stroke="#0f627a" stroke-width=".818" d="M104.678 21.558h57.378v18.891h-57.378z" opacity=".94"/><text xml:space="preserve" x="118.772" y="34.415" stroke-width=".265" font-family="sans-serif" font-size="10.583" font-weight="400" style="line-height:1.25"><tspan x="118.772" y="34.415" font-family="Arial" style="-inkscape-font-specification:Arial">根 CA</tspan></text></g><path fill="none" stroke="#000" marker-end="url(#i)" d="M142.187 28.865 71.628 83.388"/><path fill="none" stroke="#000" marker-end="url(#j)" d="m142.187 28.865 64.68 53.454"/><text xml:space="preserve" fill="#98e797" stroke="url(#k)" stroke-linejoin="round" stroke-width=".25" font-family="Arial" font-size="6.35" font-weight="400" opacity=".94" style="-inkscape-font-specification:Arial;white-space:pre;shape-inside:url(#l)" transform="translate(19.676 3.581)"><tspan x="58.266" y="40.999">手动配置证书</tspan></text></svg>